<?xml version="1.0" encoding="utf-8"?>
<!-- Generator: Adobe Illustrator 28.3.0, SVG Export Plug-In . SVG Version: 6.00 Build 0)  -->
<svg version="1.1" id="Capa_1" xmlns="http://www.w3.org/2000/svg" xmlns:xlink="http://www.w3.org/1999/xlink" x="0px" y="0px"
	 viewBox="0 0 800 800" style="enable-background:new 0 0 800 800;" xml:space="preserve">
<style type="text/css">
	.st0{fill:#FFFFFF;}
</style>
<g>
	<g>
		<path class="st0" d="M111.1,259.1c-13.8,0-25.5,4.8-35.1,14.4s-14.4,21.1-14.4,34.6v206.7c0,13.8,4.8,25.5,14.4,35.1
			c9.6,9.6,21.3,14.4,35.1,14.4c13.8,0,25.4-4.8,34.9-14.4c9.4-9.6,14.2-21.3,14.2-35.1V308.2c0-13.5-4.8-25-14.4-34.6
			C136.1,263.9,124.5,259.1,111.1,259.1z"/>
		<path class="st0" d="M509.1,73.6l34.1-63c2.2-4.2,1.4-7.4-2.4-9.6c-4.2-1.9-7.4-1-9.6,2.9l-34.6,63.5
			C466.2,53.9,434,47.1,400,47.1c-34,0-66.2,6.7-96.6,20.2L268.8,3.8C266.5,0,263.3-1,259.1,1c-3.9,2.3-4.6,5.4-2.4,9.6l34.1,63
			c-34.6,17.7-62.2,42.2-82.7,73.8c-20.5,31.6-30.8,66.1-30.8,103.6h444.7c0-37.5-10.3-72-30.8-103.6
			C570.8,115.8,543.4,91.2,509.1,73.6z M311.8,165.1c-3.7,3.7-8.1,5.5-13.2,5.5c-5.1,0-9.5-1.8-13-5.5c-3.5-3.7-5.3-8.1-5.3-13.2
			c0-5.1,1.8-9.5,5.3-13.2c3.5-3.7,7.9-5.5,13-5.5c5.1,0,9.5,1.8,13.2,5.5c3.7,3.7,5.5,8.1,5.5,13.2
			C317.3,157.1,315.5,161.5,311.8,165.1z M514.4,165.1c-3.5,3.7-7.9,5.5-13,5.5c-5.1,0-9.5-1.8-13.2-5.5c-3.7-3.7-5.5-8.1-5.5-13.2
			c0-5.1,1.8-9.5,5.5-13.2c3.7-3.7,8.1-5.5,13.2-5.5c5.1,0,9.4,1.8,13,5.5c3.5,3.7,5.3,8.1,5.3,13.2
			C519.7,157.1,517.9,161.5,514.4,165.1z"/>
		<path class="st0" d="M179.3,588.5c0,14.8,5.1,27.2,15.4,37.5c10.3,10.3,22.8,15.4,37.5,15.4h35.6l0.5,109.1
			c0,13.8,4.8,25.5,14.4,35.1s21.2,14.4,34.6,14.4c13.8,0,25.5-4.8,35.1-14.4s14.4-21.3,14.4-35.1V641.3h66.3v109.1
			c0,13.8,4.8,25.5,14.4,35.1s21.3,14.4,35.1,14.4c13.8,0,25.5-4.8,35.1-14.4c9.6-9.6,14.4-21.3,14.4-35.1V641.3h36.1
			c14.4,0,26.8-5.1,37-15.4c10.3-10.3,15.4-22.7,15.4-37.5V268.3H179.3V588.5z"/>
		<path class="st0" d="M688.9,259.1c-13.5,0-25,4.7-34.6,14.2c-9.6,9.5-14.4,21.1-14.4,34.9v206.7c0,13.8,4.8,25.5,14.4,35.1
			c9.6,9.6,21.2,14.4,34.6,14.4c13.8,0,25.5-4.8,35.1-14.4c9.6-9.6,14.4-21.3,14.4-35.1V308.2c0-13.8-4.8-25.4-14.4-34.9
			C714.4,263.9,702.7,259.1,688.9,259.1z"/>
	</g>
</g>
</svg>
