<?xml version="1.0" encoding="utf-8"?>
<!-- Generator: Adobe Illustrator 28.3.0, SVG Export Plug-In . SVG Version: 6.00 Build 0)  -->
<svg version="1.1" id="katman_1" xmlns="http://www.w3.org/2000/svg" xmlns:xlink="http://www.w3.org/1999/xlink" x="0px" y="0px"
	 viewBox="0 0 500 500" style="enable-background:new 0 0 500 500;" xml:space="preserve">
<style type="text/css">
	.st0{fill:#FFFFFF;}
</style>
<path class="st0" d="M136.4,0C61.1,0,0,61.1,0,136.4v227.3C0,438.9,61.1,500,136.4,500h227.3c75.2,0,136.4-61.1,136.4-136.4V136.4
	C500,61.1,438.9,0,363.6,0H136.4z M97.9,171.2c7.9,0,13.9,5.7,13.9,13.2c0,7.4-5.9,13.1-13.9,13.1c-8.1,0-14-5.7-14-13.1
	C84,176.9,89.9,171.2,97.9,171.2z M216.4,177.7c41.5,0,67.1,29,67.1,75.4c0,46.4-25.4,75.6-67.1,75.6c-41.9,0-67.4-29.1-67.4-75.6
	C149,206.6,175,177.7,216.4,177.7z M363.3,177.7c29.2,0,50.5,17,51.9,41.3h-21.8c-2.2-13.3-13.6-21.6-30.5-21.6
	c-17.7,0-29.4,8.4-29.4,21.5c0,10.2,7.5,16.1,26.4,20.6l15.8,3.9c29.7,6.9,41.8,18.9,41.8,40.6c0,27.6-21.4,44.9-55.6,44.9
	c-31.9,0-53.4-16.5-55-42.3h22.2c1.9,13.6,15.3,22.4,34.5,22.4c18,0,31.1-9.3,31.1-22.1c0-10.9-8.3-17.5-27.4-22l-18.6-4.4
	c-26-6.1-38-18.8-38-39.9C310.8,194.8,331.8,177.7,363.3,177.7z M216.4,198.5c-27.2,0-44.4,21.2-44.4,54.6
	c0,33.3,16.7,54.8,44.4,54.8c27.4,0,44.2-21.5,44.2-54.8C260.6,219.8,243.7,198.5,216.4,198.5z M87.3,216.6h21.4v108.8H87.3V216.6z"
	/>
</svg>
