<?xml version="1.0" encoding="utf-8"?>
<!-- Generator: Adobe Illustrator 28.3.0, SVG Export Plug-In . SVG Version: 6.00 Build 0)  -->
<svg version="1.1" id="Layer_1" xmlns="http://www.w3.org/2000/svg" xmlns:xlink="http://www.w3.org/1999/xlink" x="0px" y="0px"
	 viewBox="0 0 800 800" style="enable-background:new 0 0 800 800;" xml:space="preserve">
<style type="text/css">
	.st0{fill:#FFFFFF;}
</style>
<g>
	<polygon class="st0" points="400,0 400,64.6 735.4,64.6 735.4,735.4 400,735.4 400,800 800,800 800,0 	"/>
	<polygon class="st0" points="64.6,735.4 64.6,64.6 400,64.6 400,0 0,0 0,800 400,800 400,735.4 	"/>
	<path class="st0" d="M233,627.2c26.8,3.2,57,20.6,82.3,23.7c25.4,3.2,33.2-17.3,33.2-17.3s28.6-6.4,58.6-7.1
		c30.1-0.8,58.5,6.3,58.5,6.3s5.5,12.6,15.8,18.2c10.3,5.6,32.5,6.4,46.7-8.6c14.2-15.1,52.2-34.1,73.6-46
		c21.5-11.9,17.5-30.1,4.1-35.6c-13.5-5.5-24.5-14.2-23.7-30.9c0.7-16.5-11.9-27.6-11.9-27.6s11.1-36.4,0.8-66.6
		c-10.3-30-44.3-78.3-70.4-114.6c-26.1-36.4-3.9-78.5-27.7-132.2c-23.8-53.8-85.4-50.6-118.7-27.7c-33.2,22.9-23,79.8-21.4,106.8
		c1.6,26.8,0.7,46.1-2.3,53c-3.1,7-24.5,32.5-38.8,53.8c-14.2,21.4-24.5,65.7-34.9,84c-10.2,18.2-3.1,34.7-3.1,34.7
		s-7.1,2.4-12.7,14.3c-5.5,11.8-16.6,17.4-36.4,21.2c-19.7,4-19.7,16.8-15,31c4.8,14.2,0,22.2-5.5,40.3
		C178.4,618.5,206,624,233,627.2z M512.1,544.3c14.1,6.2,34.4-2.4,40.5-8.6c6.1-6.1,10.5-15.3,10.5-15.3s6.2,3.1,5.5,12.8
		c-0.7,9.9,4.2,24,13.5,28.9c9.2,4.9,23.3,11.7,16,18.5c-7.4,6.8-48.6,23.4-61,36.3c-12.2,12.9-28.2,23.4-38,20.3
		c-9.9-3.1-18.5-16.5-14.2-36.3c4.4-19.6,8.1-41.2,7.4-53.5c-0.7-12.3-3.1-28.9,0-31.3c3.1-2.4,8-1.3,8-1.3S497.9,538.2,512.1,544.3
		z M420.6,211.8c13.6,0,24.5,13.5,24.5,30.1c0,11.8-5.5,22-13.6,26.9c-2-0.8-4.2-1.8-6.5-2.8c4.9-2.4,8.3-8.6,8.3-15.7
		c0-9.3-5.7-17-12.9-17c-7,0-12.9,7.7-12.9,17c0,3.4,0.8,6.8,2.2,9.5c-4.2-1.7-8.1-3.2-11.1-4.3c-1.6-4.1-2.6-8.6-2.6-13.5
		C396,225.3,407,211.8,420.6,211.8z M386.9,263.6c6.7,1.2,25.1,9.1,31.9,11.6c6.8,2.3,14.3,6.7,13.6,11c-0.8,4.5-4.3,4.5-13.6,10.1
		c-9.1,5.5-29.1,17.8-35.5,18.7c-6.4,0.8-10-2.7-16.8-7.1c-6.8-4.5-19.5-14.9-16.3-20.4c0,0,10-7.6,14.3-11.5
		C368.9,271.9,380.1,262.3,386.9,263.6z M357.6,216.6c10.7,0,19.4,12.7,19.4,28.5c0,2.9-0.3,5.5-0.8,8.2c-2.7,0.8-5.3,2.2-7.9,4.5
		c-1.2,1.1-2.4,2-3.5,3.1c1.7-3.2,2.3-7.7,1.6-12.5c-1.5-8.5-7.2-14.8-12.8-13.9c-5.7,1-9,8.7-7.7,17.3c1.5,8.7,7.1,15,12.9,14
		c0.3-0.1,0.6-0.2,1-0.3c-2.7,2.7-5.3,5-8,6.9c-7.7-3.6-13.5-14.4-13.5-27.2C338.3,229.2,346.9,216.6,357.6,216.6z M298,422.2
		c11-17.4,18.2-55.4,29.2-68c11.1-12.6,19.7-39.5,15.8-51.4c0,0,23.8,28.5,40.3,23.8c16.6-4.8,53.8-32.5,59.4-27.7
		c5.5,4.8,53,109.1,57.7,142.4c4.8,33.2-3.2,58.6-3.2,58.6s-18.2-4.8-20.5,6.2c-2.3,11.1-2.3,51.5-2.3,51.5s-24.5,34-62.5,39.6
		c-38,5.5-57,1.5-57,1.5l-21.3-24.4c0,0,16.6-2.4,14.2-19.1c-2.3-16.5-50.7-39.5-59.4-60.1C279.7,474.4,286.8,439.6,298,422.2z
		 M204,546.8c1.9-8.2,26.5-8.2,36-13.9c9.5-5.7,11.4-22.2,19-26.6c7.5-4.5,21.4,11.4,27.2,20.3c5.6,8.7,27.2,46.7,36,56.2
		c8.9,9.5,17.1,22.2,14.5,33.5c-2.4,11.4-15.8,19.6-15.8,19.6c-12,3.7-45.4-10.7-60.6-17.1c-15.2-6.4-53.8-8.3-58.8-13.9
		c-5.1-5.7,2.4-18.4,4.5-30.4C207.7,562.5,202.1,555,204,546.8z"/>
</g>
</svg>
