<?xml version="1.0" encoding="utf-8"?>
<!-- Generator: Adobe Illustrator 28.3.0, SVG Export Plug-In . SVG Version: 6.00 Build 0)  -->
<svg version="1.1" id="Layer_1" xmlns="http://www.w3.org/2000/svg" xmlns:xlink="http://www.w3.org/1999/xlink" x="0px" y="0px"
	 viewBox="0 0 400 400" style="enable-background:new 0 0 400 400;" xml:space="preserve">
<style type="text/css">
	.st0{fill-rule:evenodd;clip-rule:evenodd;fill:#FFFFFF;}
</style>
<g>
	<polygon class="st0" points="74.1,176.7 88.5,176.7 88.5,223.1 74.1,223.1 54,190.8 54,223.1 39.7,223.1 39.7,176.7 54.1,176.7 
		74.1,209.1 	"/>
	<rect x="96.4" y="176.7" class="st0" width="14" height="9.5"/>
	<rect x="96.5" y="192.3" class="st0" width="14" height="30.8"/>
	<path class="st0" d="M158.8,206.3c0,2.2,0,16.8,0,16.8h-13.9v-20.3c0-2.7-2.6-5.7-6.4-5.7c-3.8,0-6.6,3-6.6,5.7l0,20.3h-13.9
		l0-30.8l13.9,0c0,0,0,2.5,0,3.2c3-2.9,7-4.5,11.1-4.7C148.3,190.7,158.9,194.1,158.8,206.3z"/>
	<polygon class="st0" points="180.4,192.3 180.4,223.1 166.4,223.1 166.4,192.3 158.9,192.3 158.9,187.7 166.4,187.7 166.4,181.5 
		180.4,181.5 180.4,187.7 187.9,187.7 187.9,192.3 	"/>
	<path class="st0" d="M212.5,214.2c0,5.6-3.7,6.9-5.8,6.9c-2.1,0-5.8-1.3-5.8-6.9c0-1.7,0-6.4,0-6.4s26.3,0,26.3,0
		c0-9.6-9.2-17.5-20.6-17.5c-11.3,0-20.5,7.8-20.5,17.3c0,9.6,9.2,17.3,20.5,17.3c9.4,0,17.4-5.4,19.8-12.7l-13.9,0
		C212.5,212.3,212.5,212.5,212.5,214.2z M201.9,197c1.1-1.9,3.1-2.8,4.9-2.8c1.8,0,3.8,0.9,4.9,2.8c0.9,1.5,0.9,3.4,0.9,6.1h-11.6
		C200.9,200.3,201,198.5,201.9,197z"/>
	<path class="st0" d="M272.1,206.3c0,2.2,0,16.8,0,16.8h-13.9v-20.3c0-2.7-2.6-5.7-6.4-5.7s-6.6,3-6.6,5.7l0,20.3h-13.8l0-30.8
		l13.8,0c0,0,0,2.5,0,3.2c3-2.9,7-4.5,11.1-4.7C261.6,190.7,272.2,194.1,272.1,206.3z"/>
	<path class="st0" d="M302.2,176.7l0,17.1c-2.2-1.3-4.6-2.5-7.9-2.8c-10-0.9-17.7,8-17.7,16.2c0,10.7,8.3,14.7,9.5,15.3
		c4.7,2.2,10.7,2.2,16.1-1.2l0,1.8H316v-46.4H302.2z M302.3,213c0,4.8-3.3,6-5.5,6c-2.2,0-5.5-1.2-5.5-6c0-1.6,0-5.5,0-5.5
		s0-3.9,0-5.5c0-4.8,3.2-6,5.5-6c2.2,0,5.5,1.2,5.5,6V213z"/>
	<path class="st0" d="M340.9,190.2c-11.3,0-20.4,7.8-20.4,17.3c0,9.6,9.1,17.3,20.4,17.3c11.3,0,20.4-7.8,20.4-17.3
		C361.3,197.9,352.2,190.2,340.9,190.2z M346.5,214c0,4.9-2.9,6.9-5.7,6.9c-2.8,0-5.7-2-5.7-6.9c0-1.9,0-6.6,0-6.6s0-4.6,0-6.4
		c0-4.9,2.9-6.9,5.7-6.9c2.8,0,5.7,2,5.7,6.9c0,1.9,0,5.3,0,6.6C346.5,207.4,346.5,212.1,346.5,214z"/>
	<path class="st0" d="M365.7,183.1c1.6-0.2,2.7-1,2.7-2.9c0-2.1-1.2-3-3.7-3h-4v10.6h1.6v-4.6h1.8l2.8,4.6h1.8L365.7,183.1z
		 M362.3,181.8v-3.3h2.2c1.1,0,2.3,0.2,2.3,1.6c0,1.6-1.2,1.7-2.6,1.7H362.3z"/>
	<path class="st0" d="M364.2,173.3c-5,0-9.3,3.9-9.3,9.1c0,5.3,4.3,9.2,9.3,9.2c5,0,9.2-3.9,9.2-9.2
		C373.4,177.2,369.2,173.3,364.2,173.3z M364.2,190.1c-4.2,0-7.5-3.2-7.5-7.7c0-4.3,3.3-7.6,7.5-7.6c4.1,0,7.4,3.3,7.4,7.6
		C371.6,186.9,368.3,190.1,364.2,190.1z"/>
	<path class="st0" d="M347.7,150.7H52.3C21,150.7,0,173.1,0,200.1s21,49.2,52.3,49.2h295.4c31.4,0,52.3-22.2,52.3-49.2
		S379,150.7,347.7,150.7z M347.6,237.2H52.4c-24.9,0.1-40.1-16.6-40.1-37.2c0-20.5,15.2-37.1,40.1-37.2h295.2
		c24.8,0,40.1,16.6,40.1,37.2C387.7,220.5,372.5,237.3,347.6,237.2z"/>
	<polygon class="st0" points="74.1,176.7 88.5,176.7 88.5,223.1 74.1,223.1 54,190.8 54,223.1 39.7,223.1 39.7,176.7 54.1,176.7 
		74.1,209.1 	"/>
	<rect x="96.4" y="176.7" class="st0" width="14" height="9.5"/>
	<rect x="96.5" y="192.3" class="st0" width="14" height="30.8"/>
	<path class="st0" d="M158.8,206.3c0,2.2,0,16.8,0,16.8h-13.9v-20.3c0-2.7-2.6-5.7-6.4-5.7c-3.8,0-6.6,3-6.6,5.7l0,20.3h-13.9
		l0-30.8l13.9,0c0,0,0,2.5,0,3.2c3-2.9,7-4.5,11.1-4.7C148.3,190.7,158.9,194.1,158.8,206.3z"/>
	<polygon class="st0" points="180.4,192.3 180.4,223.1 166.4,223.1 166.4,192.3 158.9,192.3 158.9,187.7 166.4,187.7 166.4,181.5 
		180.4,181.5 180.4,187.7 187.9,187.7 187.9,192.3 	"/>
	<path class="st0" d="M212.5,214.2c0,5.6-3.7,6.9-5.8,6.9c-2.1,0-5.8-1.3-5.8-6.9c0-1.7,0-6.4,0-6.4s26.3,0,26.3,0
		c0-9.6-9.2-17.5-20.6-17.5c-11.3,0-20.5,7.8-20.5,17.3c0,9.6,9.2,17.3,20.5,17.3c9.4,0,17.4-5.4,19.8-12.7l-13.9,0
		C212.5,212.3,212.5,212.5,212.5,214.2z M201.9,197c1.1-1.9,3.1-2.8,4.9-2.8c1.8,0,3.8,0.9,4.9,2.8c0.9,1.5,0.9,3.4,0.9,6.1h-11.6
		C200.9,200.3,201,198.5,201.9,197z"/>
	<path class="st0" d="M272.1,206.3c0,2.2,0,16.8,0,16.8h-13.9v-20.3c0-2.7-2.6-5.7-6.4-5.7s-6.6,3-6.6,5.7l0,20.3h-13.8l0-30.8
		l13.8,0c0,0,0,2.5,0,3.2c3-2.9,7-4.5,11.1-4.7C261.6,190.7,272.2,194.1,272.1,206.3z"/>
	<path class="st0" d="M302.2,176.7l0,17.1c-2.2-1.3-4.6-2.5-7.9-2.8c-10-0.9-17.7,8-17.7,16.2c0,10.7,8.3,14.7,9.5,15.3
		c4.7,2.2,10.7,2.2,16.1-1.2l0,1.8H316v-46.4H302.2z M302.3,213c0,4.8-3.3,6-5.5,6c-2.2,0-5.5-1.2-5.5-6c0-1.6,0-5.5,0-5.5
		s0-3.9,0-5.5c0-4.8,3.2-6,5.5-6c2.2,0,5.5,1.2,5.5,6V213z"/>
	<path class="st0" d="M340.9,190.2c-11.3,0-20.4,7.8-20.4,17.3c0,9.6,9.1,17.3,20.4,17.3c11.3,0,20.4-7.8,20.4-17.3
		C361.3,197.9,352.2,190.2,340.9,190.2z M346.5,214c0,4.9-2.9,6.9-5.7,6.9c-2.8,0-5.7-2-5.7-6.9c0-1.9,0-6.6,0-6.6s0-4.6,0-6.4
		c0-4.9,2.9-6.9,5.7-6.9c2.8,0,5.7,2,5.7,6.9c0,1.9,0,5.3,0,6.6C346.5,207.4,346.5,212.1,346.5,214z"/>
	<path class="st0" d="M365.7,183.1c1.6-0.2,2.7-1,2.7-2.9c0-2.1-1.2-3-3.7-3h-4v10.6h1.6v-4.6h1.8l2.8,4.6h1.8L365.7,183.1z
		 M362.3,181.8v-3.3h2.2c1.1,0,2.3,0.2,2.3,1.6c0,1.6-1.2,1.7-2.6,1.7H362.3z"/>
	<path class="st0" d="M364.2,173.3c-5,0-9.3,3.9-9.3,9.1c0,5.3,4.3,9.2,9.3,9.2c5,0,9.2-3.9,9.2-9.2
		C373.4,177.2,369.2,173.3,364.2,173.3z M364.2,190.1c-4.2,0-7.5-3.2-7.5-7.7c0-4.3,3.3-7.6,7.5-7.6c4.1,0,7.4,3.3,7.4,7.6
		C371.6,186.9,368.3,190.1,364.2,190.1z"/>
	<path class="st0" d="M74.1,176.7l0,32.3l-20-32.3H39.7l0,46.4H54v-32.3l20.1,32.3h14.3v-46.4H74.1z M187.9,187.7h-7.6v-6.2h-14
		l0,6.2h-7.6v4.6h7.6l0,30.8h14l0-30.8h7.6V187.7z M96.5,192.3v30.8h14v-30.8H96.5z M96.4,176.7v9.5h14v-9.5H96.4z M340.9,190.2
		c-11.3,0-20.4,7.8-20.4,17.3c0,9.6,9.1,17.3,20.4,17.3c11.3,0,20.4-7.8,20.4-17.3C361.3,197.9,352.2,190.2,340.9,190.2z M346.5,214
		c0,4.9-2.9,6.9-5.7,6.9c-2.8,0-5.7-2-5.7-6.9c0-1.9,0-6.6,0-6.6s0-4.6,0-6.4c0-4.9,2.9-6.9,5.7-6.9c2.8,0,5.7,2,5.7,6.9
		c0,1.9,0,5.3,0,6.6C346.5,207.4,346.5,212.1,346.5,214z M302.2,176.7l0,17.1c-2.2-1.3-4.6-2.5-7.9-2.8c-10-0.9-17.7,8-17.7,16.2
		c0,10.7,8.3,14.7,9.5,15.3c4.7,2.2,10.7,2.2,16.1-1.2l0,1.8H316v-46.4H302.2z M302.3,213c0,4.8-3.3,6-5.5,6c-2.2,0-5.5-1.2-5.5-6
		c0-1.6,0-5.5,0-5.5s0-3.9,0-5.5c0-4.8,3.2-6,5.5-6c2.2,0,5.5,1.2,5.5,6V213z M158.8,206.3c0.1-12.2-10.5-15.6-15.7-15.5
		c-4.2,0.1-8.1,1.8-11.1,4.7c0-0.8,0-3.2,0-3.2l-13.9,0l0,30.8h13.9l0-20.3c0-2.7,2.8-5.7,6.6-5.7c3.8,0,6.4,3,6.4,5.7v20.3h13.9
		C158.8,223.1,158.8,208.5,158.8,206.3z M272.1,206.3c0.1-12.2-10.5-15.6-15.7-15.5c-4.2,0.1-8.1,1.8-11.1,4.7c0-0.8,0-3.2,0-3.2
		l-13.8,0l0,30.8h13.8l0-20.3c0-2.7,2.8-5.7,6.6-5.7s6.4,3,6.4,5.7v20.3h13.9C272.1,223.1,272.1,208.5,272.1,206.3z M212.5,214.2
		c0,5.6-3.7,6.9-5.8,6.9c-2.1,0-5.8-1.3-5.8-6.9c0-1.7,0-6.4,0-6.4s26.3,0,26.3,0c0-9.6-9.2-17.5-20.6-17.5
		c-11.3,0-20.5,7.8-20.5,17.3c0,9.6,9.2,17.3,20.5,17.3c9.4,0,17.4-5.4,19.8-12.7l-13.9,0C212.5,212.3,212.5,212.5,212.5,214.2z
		 M201.9,197c1.1-1.9,3.1-2.8,4.9-2.8c1.8,0,3.8,0.9,4.9,2.8c0.9,1.5,0.9,3.4,0.9,6.1h-11.6C200.9,200.3,201,198.5,201.9,197z
		 M365.7,183.1c1.6-0.2,2.7-1,2.7-2.9c0-2.1-1.2-3-3.7-3h-4v10.6h1.6v-4.6h1.8l2.8,4.6h1.8L365.7,183.1z M362.3,181.8v-3.3h2.2
		c1.1,0,2.3,0.2,2.3,1.6c0,1.6-1.2,1.7-2.6,1.7H362.3z"/>
	<path class="st0" d="M364.2,173.3c-5,0-9.3,3.9-9.3,9.1c0,5.3,4.3,9.2,9.3,9.2c5,0,9.2-3.9,9.2-9.2
		C373.4,177.2,369.2,173.3,364.2,173.3z M364.2,190.1c-4.2,0-7.5-3.2-7.5-7.7c0-4.3,3.3-7.6,7.5-7.6c4.1,0,7.4,3.3,7.4,7.6
		C371.6,186.9,368.3,190.1,364.2,190.1z"/>
</g>
</svg>
