<?xml version="1.0" encoding="utf-8"?>
<!-- Generator: Adobe Illustrator 28.3.0, SVG Export Plug-In . SVG Version: 6.00 Build 0)  -->
<svg version="1.1" id="Layer_1" xmlns="http://www.w3.org/2000/svg" xmlns:xlink="http://www.w3.org/1999/xlink" x="0px" y="0px"
	 viewBox="0 0 400 400" style="enable-background:new 0 0 400 400;" xml:space="preserve">
<style type="text/css">
	.st0{fill:#FFFFFF;}
</style>
<g transform="translate(0.000000,900.000000) scale(0.100000,-0.100000)">
	<path class="st0" d="M1289.7,8991.6c-251.5-45-453.9-231.1-517.7-475.8c-23-88.4-24.6-140.1-22-825.6
		c1.6-629.6,2.1-644.2,12.5-692.8c58-262,244.2-448.6,508.8-510.3c34.5-7.8,78.4-9.4,361.3-11c292.8-2.1,323.1-1.6,331,6.3
		s8.4,108.8,8.4,1252.8c0,848.1-1.6,1247.6-5.2,1254.9c-5.2,9.4-14.1,9.9-320.5,9.4C1397.4,8999,1322.6,8997.4,1289.7,8991.6z
		 M1762.9,7736.7V6677.3l-212.8,2.6c-196.1,2.1-217,3.1-256.2,13.1c-168.4,43.4-293.3,173.1-328.4,342
		C954,7087.8,954,8388.7,965,8440.5c31.4,146.9,133.3,268.8,270.9,323.7c69,27.7,100.9,30.9,324.7,31.4l202.4,0.5V7736.7z"/>
	<path class="st0" d="M1334.6,8476.6c-32.9-6.3-83.1-31.4-109.8-54.9c-54.9-47.6-82.1-115-77.9-194.5c2.1-41.3,4.7-52.3,21.4-85.8
		c24.6-50.7,61.7-87.8,112.4-112.9c35-17.3,43.9-19.3,89.4-20.9c41.3-1.6,55.9,0,83.7,9.4c113.5,38.2,182,148.5,162.6,261.4
		C1594,8412.8,1466.4,8502.7,1334.6,8476.6z"/>
	<path class="st0" d="M2226.7,8996.3c-2.1-1.6-3.7-568.4-3.7-1259.6c0-1140.4,0.5-1256,8.4-1259.1c14.1-5.2,419.9-3.1,470.1,2.1
		c212.3,24.1,399.5,153.2,501.4,345.1c13.1,24.6,30.3,65.9,39.2,91.5c32.9,98.3,31.9,72.2,31.9,823.5c0,599.8-1,689.2-8.4,727.3
		c-51.8,272.4-259.4,477.9-532.3,525c-36.6,6.3-93.1,7.8-275,7.8C2332.8,9000,2228.3,8998.4,2226.7,8996.3z M2785.1,7857.5
		c81.6-21.4,148.5-83.7,175.7-163.1c17.3-49.2,16.7-121.3-0.5-166.3c-31.9-82.6-94.6-140.7-175.2-162.1
		c-130.7-34-269.8,45-308,174.6c-11.5,39.7-11,106.7,2.1,147.5C2518.5,7816.2,2654.4,7891.5,2785.1,7857.5z"/>
	<path class="st0" d="M3657.3,6095.9c-81-26.7-129.2-104.6-115.6-189.3c8.4-54.4,39.7-97.3,87.8-121.8
		c65.4-32.4,134.9-24.1,187.2,23c39.2,35.6,55.9,72.7,55.9,125.5c0,49.7-14.6,86.8-47.6,119.7
		C3783.8,6094.3,3709.6,6113.1,3657.3,6095.9z M3749.9,6019.6c31.4-16.2,48.6-42.4,51.2-77.9c3.1-46.5-16.7-80-58-97.3
		c-70.1-29.3-149.5,38.2-129.7,110.9c8.4,32.4,22.5,50.7,48.6,63.8C3690.2,6032.6,3723.2,6033.1,3749.9,6019.6z"/>
	<path class="st0" d="M152.4,5933.3v-160l32.9,1.6l32.4,1.6l2.6,100.9l2.6,100.9l75.8-102l75.8-102.5l31.4,1l31.4,1.6v156.9v156.9
		l-32.4,1.6l-32.9,1.6v-103v-103.5l-76.9,103l-77.4,103h-32.4h-32.9V5933.3z"/>
	<path class="st0" d="M675.3,5933.3v-159.5h34h34v159.5v159.5h-34h-34V5933.3z"/>
	<path class="st0" d="M981.2,6086c-1.6-3.7-2.1-74.8-1.6-157.9l1.6-151.6l32.9-1.6l32.4-1.6v105.6V5985l78.4-105.6l78.4-105.6h31.4
		h31.4v159.5v159.5h-34h-34l-1-100.4l-1.6-100.4l-75.3,100.4l-74.8,100.4h-30.9C994.2,6092.8,982.7,6090.7,981.2,6086z"/>
	<path class="st0" d="M1489.4,6089.1c-2.1-1.6-3.7-17.3-3.7-34v-30.3h52.3h52.3v-125.5v-125.5h34h34v125.5v125.5h49.7h49.7v34v34
		h-132.3C1552.2,6092.8,1491,6091.2,1489.4,6089.1z"/>
	<path class="st0" d="M1987.7,5933.3v-159.5h122.9h122.9v31.4v31.4H2142h-91.5v36.6v36.6h83.7h83.7v28.8v28.8h-83.7h-83.7v31.4v31.4
		l90.5,1l89.9,1.6l1.6,30.3l1.6,29.8h-123.4h-122.9V5933.3z"/>
	<path class="st0" d="M2492.3,6086c-1.6-3.7-2.1-74.8-1.6-157.9l1.6-151.6l32.9-1.6l32.4-1.6v106.1V5985l78.4-105.6l78.4-105.6h31.4
		h31.4v159.5v159.5h-34h-34l-1-100.4l-1.6-100.4l-75.3,100.4l-74.8,100.4h-30.9C2505.4,6092.8,2493.9,6090.7,2492.3,6086z"/>
	<path class="st0" d="M3044,5933.8v-160h69.5c80.5,0,118.7,7.8,153.2,31.9c102,70.1,86.3,220.1-28.2,272.9
		c-21.4,9.9-36.1,11.5-109.3,13.1l-85.2,2.1V5933.8z M3214.9,6014.8c43.9-20.4,62.7-76.3,40.8-122.9
		c-16.7-34.5-50.7-50.2-110.3-50.2h-38.7v91.5v91.5h43.4C3181,6024.8,3199.3,6021.6,3214.9,6014.8z"/>
	<path class="st0" d="M2886,5632.1c-72.7-9.4-137.5-43.4-190.9-100.4c-116.6-125.5-112.9-316.3,8.9-437.7
		c45-45.5,85.8-69,144.3-83.7c96.2-24.6,193.5-5.2,272.9,54.9c30.9,23,71.1,68,68,75.8c-1,2.1-22.5,21.4-48.1,43.9l-46,40.3
		l-14.1-18.3c-67.5-88.4-203.9-97.8-282.9-18.8c-11.5,11.5-27.2,32.9-35,48.1c-13.1,25.1-14.6,32.9-14.6,80c0,45,1.6,55.9,13.1,78.4
		c38.7,80,134.4,123.4,217.5,99.3c38.7-11,75.3-34,98.3-61.7l17.8-21.4l23,18.8c12.5,9.9,34.5,29.3,48.6,41.8l26.1,23.5l-20.4,25.1
		C3104.6,5602.8,2994.8,5645.7,2886,5632.1z"/>
	<path class="st0" d="M299.9,5611.7c-124.4-32.9-188.8-116.1-161-210.2c19.9-69.5,85.8-103.5,260.9-134.9
		c117.6-20.9,152.2-38.2,152.2-75.3c0-25.6-15.2-44.4-48.1-59.6c-28.2-13.1-34.5-14.1-105.6-14.1c-84.2,0-117.1,6.8-179.3,35
		c-19.3,8.9-36.1,15.2-37.1,14.1c-6.3-7.8-55.9-100.4-54.4-101.4c5.2-5.8,88.9-36.1,123.4-45.5c57.5-15.2,180.4-18.8,243.1-7.3
		c117.1,22,175.2,75.8,180.4,166.3c4.2,74.8-16.7,113.5-81,146.9c-46,24.1-85.8,35.6-187.2,55.9c-88.4,17.3-113.5,25.6-131.8,42.9
		c-16.2,15.2-16.2,42.4,0.5,59.1c37.6,37.6,172.6,39.2,277.1,2.6c17.3-5.8,32.9-8.9,35-6.8c3.7,4.2,41.3,92.6,41.3,97.8
		c0,4.7-80,28.2-125,36.6C442.6,5625.3,348.5,5624.3,299.9,5611.7z"/>
	<path class="st0" d="M745.4,5608c1.6-5.2,38.2-135.4,81.6-289.2c43.4-153.7,80-283.9,81.6-288.6c2.6-8.4,11-9.4,75.3-9.4h72.7
		l5.8,19.9c51.8,187.2,104.1,362.9,106.7,356.6c1.6-4.2,26.1-89.9,54.4-190.9l51.2-183l73.2-1.6l73.2-1.6l83.1,291.8
		c45.5,160.5,83.7,294.9,85.2,298.6c1.6,4.7-13.1,6.3-63.8,6.3h-65.4l-7.3-24.6c-4.2-14.1-29.3-108.2-55.9-209.2
		c-27.2-101.4-50.2-184.6-52.3-184.6c-1.6,0-26.1,79.5-54.4,176.7c-28.2,96.7-55.9,190.9-61.7,209.2l-9.9,32.9l-53.3-1.6l-53.3-1.6
		l-61.2-209.2c-33.5-115-61.2-210.2-61.7-211.8c-0.5-1.6-24.1,83.1-51.8,188.2c-28.2,105.1-54.4,200.8-57.5,213.3l-6.3,22h-65.4
		C748,5616.9,742.7,5616.4,745.4,5608z"/>
	<path class="st0" d="M1736.7,5318.9v-298h68h68l-1,297l-1.6,296.5l-66.4,1.6l-66.9,1.6V5318.9z"/>
	<path class="st0" d="M2013.9,5551.6v-65.4h94.1h94.1v-232.7v-232.7h65.4h65.4v232.7v232.7l93.1,1l92.6,1.6v62.7v62.7l-252,1.6
		l-252.6,1V5551.6z"/>
	<path class="st0" d="M3326.3,5318.9v-298h62.7h62.7v117.6v117.6h138.6h138.6v-117.6v-117.6h62.7h62.7l-1,297l-1.6,296.5l-61.2,1.6
		l-61.7,1.6v-118.2v-117.6h-138.6h-138.6v117.6v117.6h-62.7h-62.7V5318.9z"/>
</g>
</svg>
