<svg xmlns="http://www.w3.org/2000/svg" version="1.1" xmlns:xlink="http://www.w3.org/1999/xlink" width="512" height="512" x="0" y="0" viewBox="0 0 56 56" style="enable-background:new 0 0 512 512" xml:space="preserve" class=""><g><g fill="#000" fill-rule="nonzero"><circle cx="50" cy="23" r="1" fill="#ffffff" opacity="1" data-original="#000000" class=""></circle><path d="M31 54H11a1 1 0 0 0 0 2h20a1 1 0 0 0 0-2zM27 46h12a3 3 0 0 0 3-3H0a3 3 0 0 0 3 3zM16 48h10v4H16z" fill="#ffffff" opacity="1" data-original="#000000" class=""></path><circle cx="50" cy="15" r="1" fill="#ffffff" opacity="1" data-original="#000000" class=""></circle><path d="M42 17a3 3 0 0 0-3-3H3a3 3 0 0 0-3 3v24h42zM2.29 20.29l4-4a1.004 1.004 0 1 1 1.42 1.42l-4 4a1 1 0 0 1-1.42 0 1 1 0 0 1 0-1.42zm11.42-2.58-10 10a1 1 0 0 1-1.42 0 1 1 0 0 1 0-1.42l10-10a1.004 1.004 0 1 1 1.42 1.42z" fill="#ffffff" opacity="1" data-original="#000000" class=""></path><path d="M55 0H29a1 1 0 0 0-1 1v11h11a5 5 0 0 1 5 5v26a5 5 0 0 1-5 5H28v4h3a3 3 0 0 1 2.82 4H55a1 1 0 0 0 1-1V1a1 1 0 0 0-1-1zM38 53a1 1 0 0 1-2 0v-2a1 1 0 0 1 2 0zm4 0a1 1 0 0 1-2 0v-2a1 1 0 0 1 2 0zm4 0a1 1 0 0 1-2 0v-2a1 1 0 0 1 2 0zm4 0a1 1 0 0 1-2 0v-2a1 1 0 0 1 2 0zm-3-30a3 3 0 1 1 6 0 3 3 0 0 1-6 0zm0-8a3 3 0 1 1 6 0 3 3 0 0 1-6 0zm7 38a1 1 0 0 1-2 0v-2a1 1 0 0 1 2 0zm0-46a2 2 0 0 1-2 2H32a2 2 0 0 1-2-2V5a2 2 0 0 1 2-2h20a2 2 0 0 1 2 2z" fill="#ffffff" opacity="1" data-original="#000000" class=""></path><path d="M32 5h20v2H32z" fill="#ffffff" opacity="1" data-original="#000000" class=""></path></g></g></svg>