<?xml version="1.0" encoding="utf-8"?>
<!-- Generator: Adobe Illustrator 28.3.0, SVG Export Plug-In . SVG Version: 6.00 Build 0)  -->
<svg version="1.1" id="katman_1" xmlns="http://www.w3.org/2000/svg" xmlns:xlink="http://www.w3.org/1999/xlink" x="0px" y="0px"
	 viewBox="0 0 400 400" style="enable-background:new 0 0 400 400;" xml:space="preserve">
<style type="text/css">
	.st0{fill-rule:evenodd;clip-rule:evenodd;fill:#FFFFFF;}
	.st1{fill:#FFFFFF;}
</style>
<g>
	<path class="st0" d="M8.7,230.4c-8.8-2.5-10.3-7.8-6.3-10.9c3.7-2.8,10-4.9,10-4.9l26.1-9.5v10.7l-18.7,6.9c-3.3,1.2-3.8,3-1.1,3.8
		c2.7,0.9,7.5,0.7,10.9-0.5l9-3.3v9.7c-0.5,0.1-1.2,0.2-1.8,0.3C27.4,234.2,17.8,233.4,8.7,230.4L8.7,230.4z M63.8,231.5L93,220.8
		c3.3-1.2,3.8-2.9,1.1-3.8c-2.7-0.9-7.5-0.7-10.9,0.5l-19.5,7v-11.1l1.1-0.4c4.4-1.4,8.9-2.4,13.6-2.9c7.9-0.9,17.6,0.1,25.2,3.1
		c8.6,2.8,9.5,6.8,7.4,9.6s-7.5,4.8-7.5,4.8l-39.8,14.5L63.8,231.5z M67.2,162.5c15.4,5.4,20.6,12.1,20.6,27.3
		c0,14.7-8.9,20.3-20.3,14.7V177c0-3.2-0.6-6.2-3.6-7.1c-2.3-0.7-3.7,1.4-3.7,4.6v68.8l-18.2-5.9v-82.1
		C49.8,157,61.1,160.4,67.2,162.5L67.2,162.5z M106.3,237.9c0,0.1,0,0.2-0.1,0.3c-0.1,0.1-0.1,0.2-0.2,0.2c-0.2,0.1-0.4,0.2-0.7,0.2
		H104v-1.4h1.5c0.2,0,0.3,0,0.5,0.1c0.1,0.1,0.2,0.2,0.2,0.2C106.3,237.6,106.3,237.7,106.3,237.9L106.3,237.9z M107.3,241.2
		c-0.1,0-0.1-0.1-0.1-0.1c0-0.1-0.1-0.1-0.1-0.1c0-0.1-0.1-0.2-0.1-0.4v-0.7c0-0.2-0.1-0.5-0.2-0.7c-0.1-0.1-0.2-0.2-0.3-0.2
		c0.2-0.1,0.3-0.2,0.4-0.4c0.1-0.2,0.2-0.5,0.2-0.8s-0.1-0.5-0.2-0.8s-0.4-0.4-0.5-0.5c-0.3-0.1-0.6-0.2-1-0.2h-2.4v5.2h0.8v-2.1
		h1.4c0.2,0,0.4,0,0.5,0.1c0.1,0.1,0.2,0.1,0.2,0.2c0.1,0.1,0.1,0.2,0.1,0.3l0.1,0.8c0,0.1,0,0.3,0.1,0.4c0,0.1,0.1,0.1,0.1,0.2
		l0.1,0.1h1L107.3,241.2L107.3,241.2z M101.3,239c0-1,0.4-2,1.1-2.7c0.4-0.4,0.8-0.7,1.2-0.8c0.4-0.2,1-0.3,1.4-0.3
		c0.5,0,1,0.1,1.4,0.3c0.5,0.2,0.8,0.5,1.2,0.8c0.5,0.5,0.9,1.2,1,2c0.1,0.7,0.1,1.5-0.2,2.2c-0.3,0.7-0.8,1.3-1.4,1.8
		c-0.6,0.4-1.3,0.7-2.1,0.7c-0.5,0-1-0.1-1.4-0.3c-0.5-0.2-0.8-0.5-1.2-0.8C101.7,241.1,101.3,240,101.3,239L101.3,239z M105,243.7
		c0.6,0,1.2-0.1,1.8-0.4s1-0.6,1.4-1c0.8-0.9,1.3-2.1,1.3-3.3c0-1.2-0.5-2.4-1.3-3.3c-0.4-0.4-0.9-0.8-1.4-1
		c-0.5-0.2-1.1-0.4-1.8-0.4c-0.9,0-1.8,0.3-2.5,0.8c-0.7,0.5-1.3,1.3-1.7,2.1c-0.4,0.8-0.4,1.8-0.2,2.7c0.2,0.9,0.6,1.8,1.2,2.4
		c0.4,0.4,0.9,0.8,1.4,1C103.9,243.6,104.4,243.7,105,243.7L105,243.7z"/>
	<path class="st1" d="M391.8,226H391v-5.4h-1.8v-0.7h4.3v0.7h-1.8L391.8,226z M397.2,224.6l1.6-4.7h1.2v6.2h-0.8v-5.1l-1.8,5.1h-0.5
		l-1.8-5.1v5.1h-0.8v-6.2h1.2L397.2,224.6z M381.5,173h-74.2v20.4c0,0-0.2,7.9,9.4,7.9H362c1.8,0,3.6,0.4,5.2,1.1
		c2.5,1.1,5.4,3.5,5.4,8.2c0,4.2-2,6.6-4,8c-1.6,1.1-3.6,1.6-5.6,1.6h-55.7v5.7h62.2c0,0,14.1-0.6,14.1-15.3c0-7.5-4.3-11.2-8.2-13
		c-2.5-1.1-5.3-1.8-8-1.8h-45c-0.7,0-1.5-0.2-2.2-0.5c-1-0.5-2-1.6-2-3.6v-13.1h63.3L381.5,173L381.5,173z M213.8,220.2v5.7h31.5
		c3.7,0.1,7.4-1.3,10.3-3.8c1.4-1.3,2.7-2.8,3.4-4.6c0.8-1.8,1.2-3.7,1.1-5.7v-24.3c0-1.3,0.2-2.7,0.8-3.9c0.5-1.2,1.4-2.3,2.4-3.1
		c1.4-1.1,3.3-1.8,5.1-1.8H296V173h-32.7c0,0-14.1,0.2-14.1,15.4v22.8c0,1.9-0.5,3.7-1.4,5.3c-0.7,1.1-1.7,2.1-2.8,2.8
		c-1.2,0.7-2.5,1-3.9,1L213.8,220.2z M141.1,173v5.7h56.1c1.6,0,3.1,0.3,4.5,1c2.2,1.1,4.7,3.3,4.7,7.7c0,4.3-2.5,6.5-4.7,7.5
		c-1.4,0.7-3,1-4.6,1h-41.7c-2.5,0-4.9,0.5-7.1,1.6c-3.4,1.8-7.3,5.9-7.3,12.7v15.6h10.8v-15.5c0-1,0.2-2,0.5-3c0.9-2.3,3.1-6,8.4-6
		h42c1.4,0,2.8-0.2,4.2-0.5c3.9-1.1,10.3-4.3,10.3-13.4c0-14.1-13.9-14.3-13.9-14.3L141.1,173L141.1,173z"/>
</g>
</svg>
