<?xml version="1.0" encoding="utf-8"?>
<!-- Generator: Adobe Illustrator 28.3.0, SVG Export Plug-In . SVG Version: 6.00 Build 0)  -->
<svg version="1.1" id="svg5" xmlns:svg="http://www.w3.org/2000/svg"
	 xmlns="http://www.w3.org/2000/svg" xmlns:xlink="http://www.w3.org/1999/xlink" x="0px" y="0px" viewBox="0 0 400 400"
	 style="enable-background:new 0 0 400 400;" xml:space="preserve">
<style type="text/css">
	.st0{fill-rule:evenodd;clip-rule:evenodd;fill:#FFFFFF;}
</style>
<g id="layer1" transform="translate(-326.44138,39.376876)">
	<polygon id="polygon5" class="st0" points="326.4,158 326.4,195.1 331.3,195.1 331.3,162.8 450.8,162.8 450.8,126.1 326.4,126.1 
		326.4,131 446.4,131 446.4,158 	"/>
	<polygon id="polygon7" class="st0" points="721.6,131 721.6,158 601.7,158 601.7,195.1 726.4,195.1 726.4,190.3 607,190.3 
		607,162.8 726.4,162.8 726.4,126.1 601.7,126.1 601.7,131 	"/>
	<polygon id="polygon9" class="st0" points="583.1,131 583.1,126.1 514.5,126.1 514.5,190.3 450.8,190.3 450.8,195.1 519.8,195.1 
		519.8,131 	"/>
</g>
</svg>
