<?xml version="1.0" encoding="utf-8"?>
<!-- Generator: Adobe Illustrator 28.3.0, SVG Export Plug-In . SVG Version: 6.00 Build 0)  -->
<svg version="1.1"
	 id="Ebene_1" xmlns:cc="http://creativecommons.org/ns#" xmlns:dc="http://purl.org/dc/elements/1.1/" xmlns:svg="http://www.w3.org/2000/svg" xmlns:inkscape="http://www.inkscape.org/namespaces/inkscape" xmlns:sodipodi="http://sodipodi.sourceforge.net/DTD/sodipodi-0.dtd" xmlns:rdf="http://www.w3.org/1999/02/22-rdf-syntax-ns#" sodipodi:docname="PS3.svg"
	 xmlns="http://www.w3.org/2000/svg" xmlns:xlink="http://www.w3.org/1999/xlink" x="0px" y="0px" viewBox="0 0 400 400"
	 style="enable-background:new 0 0 400 400;" xml:space="preserve">
<style type="text/css">
	.st0{fill:#FFFFFF;}
</style>
<sodipodi:namedview  bordercolor="#666666" borderopacity="1" fit-margin-bottom="0" fit-margin-left="0" fit-margin-right="0" fit-margin-top="0" gridtolerance="10" guidetolerance="10" id="namedview43" inkscape:current-layer="Ebene_1" inkscape:cx="314.891" inkscape:cy="14.227" inkscape:pageopacity="0" inkscape:pageshadow="2" inkscape:window-height="837" inkscape:window-maximized="1" inkscape:window-width="1600" inkscape:window-x="-8" inkscape:window-y="-8" inkscape:zoom="0.53073463" objecttolerance="10" pagecolor="#ffffff" showgrid="false">
	</sodipodi:namedview>
<g id="g33" transform="translate(-18.609,-19.551)">
	<g id="g35">
		<path id="path37" inkscape:connector-curvature="0" class="st0" d="M274.7,176.9h-52.5c-16.2,0-24.1,10-24.1,23v39.4
			c0,8.1-3.8,13.8-11.8,13.8h-45.9c-0.3,0-0.6,0.3-0.6,0.6v8c0,0.3,0.3,0.6,0.6,0.6h51.9c16.2,0,24.1-10,24.1-22.9v-39.5
			c0-8.1,3.8-13.9,11.9-13.9h46.4c0.4,0,0.6-0.3,0.6-0.6v-7.9C275.3,177.1,275,176.9,274.7,176.9L274.7,176.9z"/>
		<path id="path39" inkscape:connector-curvature="0" class="st0" d="M120.2,176.9h-101c-0.4,0-0.6,0.3-0.6,0.6v7.9
			c0,0.3,0.3,0.6,0.6,0.6h94.9c8,0,11.8,5.8,11.8,13.8c0,8-3.8,13.8-11.8,13.8H39.1c-11.7,0-20.5,9.8-20.5,22.8v25.2
			c0,0.3,0.3,0.6,0.6,0.6h17.1c0.3,0,0.6-0.3,0.6-0.6v-25.2c0-8,4.6-13.7,11.3-13.7h72c16.2,0,24.1-9.9,24.1-22.9
			C144.3,186.9,136.4,176.9,120.2,176.9L120.2,176.9z"/>
		<path id="path41" inkscape:connector-curvature="0" class="st0" d="M411.1,218.5c-0.2-0.3-0.2-0.7,0-0.9c5-4.2,7.5-10.4,7.5-17.7
			c0-13-7.9-23-24.1-23H293.6c-0.3,0-0.6,0.3-0.6,0.6v7.9c0,0.3,0.3,0.6,0.6,0.6h94.9c8,0,11.9,5.8,11.9,13.8
			c0,8-3.8,13.8-11.9,13.8h-0.1l-94.8,0c-0.3,0-0.6,0.2-0.6,0.6v7.9c0,0.3,0.3,0.6,0.6,0.6h94.9c10.5,0.1,11.8,10.3,11.8,15.5l0,1
			c0,8.1-3.9,13.9-11.9,13.9h-94.9c-0.3,0-0.6,0.2-0.6,0.6v7.9c0,0.3,0.3,0.6,0.6,0.6h100.9c16.2,0,24.1-10.8,24.1-23v-1
			C418.6,230.5,416.1,223,411.1,218.5z"/>
	</g>
</g>
</svg>
