<?xml version="1.0" encoding="utf-8"?>
<!-- Generator: Adobe Illustrator 28.3.0, SVG Export Plug-In . SVG Version: 6.00 Build 0)  -->
<svg version="1.1"
	 id="svg41117" xmlns:cc="http://creativecommons.org/ns#" xmlns:dc="http://purl.org/dc/elements/1.1/" xmlns:svg="http://www.w3.org/2000/svg" xmlns:rdf="http://www.w3.org/1999/02/22-rdf-syntax-ns#"
	 xmlns="http://www.w3.org/2000/svg" xmlns:xlink="http://www.w3.org/1999/xlink" x="0px" y="0px" viewBox="0 0 400 400"
	 style="enable-background:new 0 0 400 400;" xml:space="preserve">
<style type="text/css">
	.st0{fill-rule:evenodd;clip-rule:evenodd;fill:#FFFFFF;}
</style>
<path id="path-1" class="st0" d="M396.4,281.9c-7.8,9.9-27,16.9-27,16.9L227.1,350v-37.7l104.8-37.3c11.9-4.3,13.7-10.3,4.1-13.4
	c-9.6-3.2-27.1-2.3-39,2l-69.8,24.6v-39.1l4-1.4c0,0,20.2-7.1,48.6-10.3c28.4-3.1,63.1,0.4,90.4,10.8
	C400.8,257.7,404.2,272.1,396.4,281.9z M240.6,217.7v-96.5c0-11.3-2.1-21.8-12.7-24.7c-8.1-2.6-13.2,5-13.2,16.3v241.6l-65.2-20.7
	v-288c27.7,5.1,68.1,17.3,89.8,24.6c55.2,18.9,73.9,42.5,73.9,95.6C313.2,217.7,281.2,237.3,240.6,217.7z M30,308.3
	c-31.6-8.9-36.8-27.4-22.4-38.1c13.3-9.8,35.9-17.3,35.9-17.3l93.4-33.2v37.9l-67.2,24.1c-11.9,4.3-13.7,10.3-4.1,13.5
	c9.7,3.2,27.1,2.3,39-2l32.2-11.7v33.9c-2,0.4-4.3,0.7-6.4,1.1C98.2,321.7,63.9,319.5,30,308.3L30,308.3z M375.7,323.3
	c4.1,0,7.9,1.6,10.8,4.5c2.9,2.9,4.5,6.7,4.5,10.8c0,4.1-1.6,7.9-4.5,10.8c-2.9,2.9-6.7,4.5-10.8,4.5s-7.9-1.6-10.8-4.5
	c-2.9-2.9-4.5-6.7-4.5-10.8C360.4,330.2,367.3,323.3,375.7,323.3z M363,338.6c0,3.4,1.3,6.6,3.7,9c2.4,2.4,5.6,3.7,9,3.7
	c7,0,12.7-5.7,12.7-12.7c0-3.4-1.3-6.6-3.7-9c-2.4-2.4-5.6-3.7-9-3.7c-3.4,0-6.6,1.3-9,3.7C364.3,332,363,335.2,363,338.6z
	 M380.3,330.3c1.7,0.7,2.5,2.2,2.5,4.2c0,1-0.2,1.9-0.7,2.6c-0.3,0.5-0.8,0.9-1.3,1.2c0.4,0.2,0.8,0.5,1,0.8
	c0.4,0.5,0.6,1.2,0.6,2.3l0.1,2.2c0,0.6,0.1,1,0.2,1.3c0.1,0.4,0.3,0.7,0.5,0.7l0.2,0.1v0.2v0.4v0.4h-0.4h-2.7h-0.2l-0.1-0.2
	c-0.1-0.2-0.2-0.4-0.2-0.7c0-0.2-0.1-0.7-0.1-1.3l-0.1-2.7c0-0.9-0.4-1.5-1-1.8c-0.4-0.2-1-0.3-1.8-0.3h-4.6v6.6v0.4h-0.4h-2.2h-0.4
	v-0.4v-16.2v-0.4h0.4h7.5C378.4,329.8,379.5,330,380.3,330.3L380.3,330.3z M372.2,337.2h4.7c0.9,0,1.7-0.2,2.2-0.5
	c0.5-0.4,0.7-1,0.7-1.9c0-1-0.3-1.7-1-2c-0.4-0.2-0.9-0.3-1.6-0.3h-5L372.2,337.2L372.2,337.2z"/>
</svg>
