<?xml version="1.0" encoding="utf-8"?>
<!-- Generator: Adobe Illustrator 28.3.0, SVG Export Plug-In . SVG Version: 6.00 Build 0)  -->
<svg version="1.1" id="Layer_1" xmlns="http://www.w3.org/2000/svg" xmlns:xlink="http://www.w3.org/1999/xlink" x="0px" y="0px"
	 viewBox="0 0 400 400" style="enable-background:new 0 0 400 400;" xml:space="preserve">
<style type="text/css">
	.st0{fill:none;}
	.st1{fill:#FFFFFF;}
</style>
<path class="st0" d="M399.5,177.4H144.2V229H400v-51.7H399.5z M389,222.7h4.5v0.7h-1.8v5.1h-0.8v-5.1H389L389,222.7L389,222.7z"/>
<path class="st1" d="M390.9,228.5h0.8v-5.1h1.8v-0.7H389v0.7h1.8L390.9,228.5z"/>
<path class="st0" d="M399.5,177.4H144.2V229H400v-51.7H399.5z M394.2,222.7h1.1l1.7,4.9l1.6-4.9h0.9v5.8h-0.6v-4.7l-1.6,4.7h-0.8
	l-1.6-4.7v4.7h-0.8L394.2,222.7L394.2,222.7z"/>
<path class="st1" d="M395,223.8l1.6,4.7h0.8l1.6-4.7v4.7h0.6v-5.8h-0.9l-1.6,4.9l-1.7-4.9h-1.1v5.8h0.8V223.8z M267,214.7v-23.8
	c0-4.9,2.3-8.3,7.1-8.3h29.8c0.2,0,0.4-0.2,0.4-0.4v-4.7c0,0,0-0.1,0-0.1h-36.5c-7.9,1-11.8,6.5-11.8,13.5v23.8
	c0,4.9-2.3,8.3-7.1,8.3h-31.5c-0.2,0-0.4,0.1-0.4,0.4v4.7c0,0.2,0.1,0.3,0.3,0.4h35.7C262.4,228.3,267,222.3,267,214.7L267,214.7z
	 M144.5,228.5h10.5c0.2-0.1,0.3-0.2,0.3-0.4V213c0-4.9,2.7-8.2,6.7-8.2h43.1c9.7,0,14.4-6,14.4-13.8c0-7-3.9-12.5-11.8-13.5h-63.4
	c0,0,0,0.1,0,0.1v4.7c0,0.2,0.1,0.4,0.4,0.4h56.8c4.8,0,7.1,3.5,7.1,8.3c0,4.9-2.3,8.3-7.1,8.3h-45c-7,0-12.2,5.9-12.2,13.7v15.2
	C144.2,228.3,144.3,228.5,144.5,228.5L144.5,228.5z"/>
<path class="st0" d="M313.3,217.5h48c0.2,0,0.4-0.2,0.4-0.4v-29.6c0-0.7-0.6-0.7-0.9-0.5L313,216.7c-0.3,0.2-0.4,0.4-0.4,0.6
	C312.7,217.4,312.9,217.5,313.3,217.5L313.3,217.5z"/>
<path class="st1" d="M304.1,223h57.2c0.2,0,0.3,0.1,0.3,0.2v4.9c0,0.2,0.2,0.4,0.4,0.4h10.3c0.2,0,0.4-0.1,0.4-0.4v-4.7
	c0-0.2,0.2-0.4,0.4-0.4h10.3c0.2,0,0.4-0.2,0.4-0.4v-4.8c0-0.2-0.1-0.4-0.4-0.4H373c-0.2,0-0.4-0.2-0.4-0.4v-34.6
	c0-2.8-1-4.6-2.8-5.2h-3c-0.9,0.2-1.9,0.7-3,1.3l-61.7,38.1c-2.4,1.5-3.2,3.2-2.6,4.4C300,222.3,301.4,223,304.1,223L304.1,223z
	 M313,216.7l47.8-29.6c0.3-0.2,0.9-0.2,0.9,0.5v29.6c0,0.2-0.2,0.4-0.4,0.4h-48c-0.4,0-0.6-0.1-0.7-0.2
	C312.6,217,312.7,216.9,313,216.7L313,216.7z M40.7,158.2c4.7,0.9,9.2,2.1,13.8,3.4c2.6,0.8,5.2,1.5,7.8,2.4
	c4.1,1.3,8.1,2.8,11.8,4.9c1.6,1,3.2,2.1,4.6,3.5c1.5,1.4,2.7,3.1,3.5,5c1.6,3.3,2.1,7.1,2.3,10.7c0.1,2.4,0.1,4.8-0.4,7.2
	c-0.4,2.1-1,4.1-2.1,5.9c-1,1.6-2.3,2.9-4,3.8c-1.6,0.8-3.4,1.2-5.1,1.2c-2.7,0-5.3-0.8-7.7-2c0-8.1,0-16.1,0-24.2
	c0-1.5,0.1-2.9-0.2-4.4c-0.2-1.1-0.7-2.2-1.5-3c-0.6-0.5-1.3-0.8-2.1-1c-0.8-0.1-1.6,0.2-2.1,0.8c-0.8,1-1,2.3-1,3.5
	c0,21.6,0,43.2,0,64.7c-5.8-1.8-11.6-3.7-17.4-5.5C40.7,209.6,40.7,183.9,40.7,158.2L40.7,158.2z M14.6,212.9
	c7.6-2.7,15.1-5.4,22.7-8.1c0,3,0,5.9,0,8.9c0,0.4,0,0.8,0,1.2c-6,2.1-12,4.3-17.9,6.4c-0.8,0.3-1.7,0.7-2.3,1.3
	c-0.3,0.3-0.5,0.7-0.4,1.2c0.2,0.5,0.7,0.8,1.2,1c1.3,0.5,2.7,0.6,4.1,0.7c1.6,0,3.1-0.1,4.6-0.5c1-0.2,2-0.6,3-0.9
	c2.6-0.9,5.1-1.9,7.7-2.8c0,2.5,0,5,0,7.5c0,0.5,0,1,0,1.5c-3.1,0.6-6.3,0.9-9.5,1c-6.4,0.1-12.9-0.9-19-2.9c-2-0.6-4-1.4-5.7-2.6
	c-0.9-0.7-1.7-1.6-2.2-2.7c-0.4-0.9-0.3-2,0.1-2.9c0.4-0.9,1.2-1.6,2-2.2c1.9-1.3,3.9-2.3,6-3.2C10.9,214.1,12.7,213.5,14.6,212.9
	L14.6,212.9z"/>
<path class="st1" d="M75.5,209.5c1.7-0.2,3.4-0.2,5.2-0.3c5.7,0,11.4,0.7,16.8,2.4c1.1,0.3,2.1,0.7,3.2,1.1c1.9,0.7,3.8,1.5,5.3,2.9
	c0.9,0.8,1.7,1.9,1.7,3.2c0.1,1-0.4,2-1.1,2.8c-1.3,1.4-3,2.4-4.7,3.3c-1.8,0.9-3.8,1.5-5.7,2.2c-11.6,4.2-23.2,8.3-34.8,12.5
	c0-3.2,0-6.5,0-9.7c0-0.1-0.1-0.4,0.1-0.4c8.8-3.1,17.7-6.3,26.5-9.4c1.2-0.4,2.5-0.8,3.5-1.6c0.4-0.3,0.8-0.8,0.6-1.4
	c-0.2-0.5-0.7-0.8-1.2-1c-1.3-0.5-2.8-0.6-4.2-0.7c-2.2,0-4.4,0.3-6.5,1c-6.3,2.2-12.6,4.4-18.9,6.6c0-3.5,0-7,0-10.5
	C65.9,211,70.7,210,75.5,209.5L75.5,209.5z M101.3,233.5c1.4-0.2,2.8,0.4,3.6,1.6c0.9,1.1,1.1,2.8,0.4,4.1c-0.6,1.4-2.1,2.3-3.6,2.3
	c-1.4,0-2.7-0.8-3.4-2c-0.6-1.1-0.7-2.4-0.2-3.5C98.6,234.6,99.9,233.7,101.3,233.5L101.3,233.5z M101,234.2
	c-1.8,0.4-2.9,2.2-2.5,3.9c0.2,0.9,0.7,1.6,1.4,2.1c1.1,0.7,2.7,0.7,3.7-0.1c1.1-0.8,1.6-2.3,1.2-3.6c-0.2-0.9-0.9-1.6-1.6-2
	C102.6,234.2,101.8,234.1,101,234.2L101,234.2z"/>
<path class="st1" d="M100,235.2c0.7,0,1.4,0,2.1,0c0.4,0,0.9,0.1,1.1,0.4c0.3,0.3,0.3,0.8,0.2,1.2c0,0.3-0.3,0.4-0.5,0.6
	c0.2,0.1,0.3,0.3,0.4,0.5c0.1,0.4,0,0.8,0.1,1.3c0.1,0.1,0.2,0.3,0.2,0.5c-0.3,0-0.6,0-0.9,0c-0.2-0.5-0.1-1-0.2-1.5
	c0-0.2-0.3-0.3-0.4-0.3c-0.5,0-1,0-1.5,0c0,0.6,0,1.2,0,1.8c-0.3,0-0.5,0-0.8,0C100,238.1,100,236.7,100,235.2L100,235.2z
	 M100.8,235.9v1.2c0.4,0,0.9,0,1.3,0c0.2,0,0.5,0,0.6-0.2c0.1-0.2,0.1-0.5,0-0.8c-0.1-0.2-0.3-0.2-0.5-0.2
	C101.7,235.9,101.3,235.9,100.8,235.9z"/>
</svg>
