<?xml version="1.0" encoding="utf-8"?>
<!-- Generator: Adobe Illustrator 28.3.0, SVG Export Plug-In . SVG Version: 6.00 Build 0)  -->
<svg version="1.1" id="Layer_1" xmlns="http://www.w3.org/2000/svg" xmlns:xlink="http://www.w3.org/1999/xlink" x="0px" y="0px"
	 viewBox="0 0 400 400" style="enable-background:new 0 0 400 400;" xml:space="preserve">
<style type="text/css">
	.st0{fill-rule:evenodd;clip-rule:evenodd;fill:#FFFFFF;}
</style>
<path class="st0" d="M399,207.7v-3.5h0l-1.3,3.5H397l-1.3-3.5h0v3.5h-0.8v-4.5h1.3l1.2,3.2l1.2-3.2h1.2v4.5H399z M392.6,207.7h-0.9
	v-3.8h-1.4v-0.7h3.6v0.7h-1.4L392.6,207.7L392.6,207.7z M364.8,194.8l-41,0l-7.1,13.5h-9.3c0,0,29-55,30.2-56.9
	c1.2-1.9,4.5-7.8,9.8-7.5c5.3,0.3,7.6,4.4,8.6,6.1c1,1.7,31,58.3,31,58.3h-14.9L364.8,194.8z M347.2,162.2c-1.3-2.6-4.2-3.2-5.8-0.2
	c-0.7,1.3-13.2,24.8-13.2,24.8l32.3,0L347.2,162.2z M294.8,151.7l0,56.1h-13.3v-56l-25.3,0v-7.8l64,0l0,7.9L294.8,151.7z
	 M260.4,247.1c1.8-0.3,3.4-0.1,3.4-1.6c0-1.3-1.3-1.5-2.3-1.5c-1.4,0-2.4,0.6-2.5,1.8h-2.5c0.2-2.9,2.6-3.8,5.1-3.8
	c2.2,0,4.5,0.9,4.5,3.3v5.8c0,0.6,0.1,0.9,0.6,0.9c0.2,0,0.4,0,0.6,0v1.7c-0.4,0.1-1.2,0.3-1.6,0.3c-1,0-1.7-0.3-1.9-1.4
	c-1,1-2.6,1.4-3.9,1.4c-2,0-3.9-1.1-3.9-3.3C256,247.8,258.3,247.3,260.4,247.1z M260.8,252c1.1,0,2.8-0.6,2.8-2.1V248
	c-0.8,0.5-2,0.5-3.1,0.7c-1.1,0.2-2,0.6-2,1.9C258.5,251.6,259.9,252,260.8,252z M250,250.8v-6.7h-1.9v-1.9h1.9v-3.4h2.5v3.4h2.3
	v1.9h-2.3v6c0,1,0.1,1.6,1.2,1.6c0.3,0,0.7,0,1.1-0.1v1.9c-0.5,0-1.1,0.1-1.6,0.1C250.5,253.7,250,252.7,250,250.8z M234,144.3h13.6
	v63.9H234V144.3z M235.8,250.4l4-12.4h2.8l-5.3,15.6h-3l-5.2-15.6h2.8L235.8,250.4L235.8,250.4z M225.5,253.8
	c-2.1,0-3.5-1.5-3.5-3.6c0-2.2,1.6-3.6,3.5-3.6c1.9,0,3.5,1.4,3.5,3.6C229,252.3,227.3,253.8,225.5,253.8z M225.5,247.2
	c-1.6,0-2.8,1.2-2.8,3c0,1.6,1.1,3,2.8,3c1.5,0,2.8-1.2,2.8-3C228.2,248.4,227,247.2,225.5,247.2z M226,250.5l1.1,1.8h-0.7l-1-1.7
	h-0.6v1.7h-0.7v-4h1.5c1,0,1.5,0.3,1.5,1.1C227,250.1,226.6,250.4,226,250.5z M225.5,248.8h-0.8v1.2h0.7c0.5,0,0.9,0,0.9-0.6
	C226.4,248.9,225.9,248.8,225.5,248.8z M185.5,208.3c-5.3-0.3-7.6-4.4-8.6-6.1c-1-1.7-30.9-58.2-30.9-58.2h14.9l24.8,46
	c1.3,2.6,4.2,3.2,5.8,0.2c1.3-2.5,24.7-46.2,24.7-46.2h9.3c0,0-29,54.9-30.1,56.8C194.1,202.7,190.8,208.6,185.5,208.3z
	 M148.9,242.3l-4.4,11.9c-0.8,2-1.4,3.9-4,3.9c-0.6,0-1.2,0-1.7-0.1v-2.1c0.4,0.1,0.8,0.2,1.2,0.2c1.2,0,1.4-0.6,1.7-1.6l0.3-0.9
	l-4.3-11.3h2.7l3,8.4h0l2.9-8.4H148.9z M107.5,161.5v29.2c0,10.7-4.8,17.4-18.2,17.4H60.6v-7.9h25c5.1,0,8.2-4.2,8.2-9.5v-29.2
	c0-9.3,4.5-17.4,17.8-17.4H140v7.9h-24.6C108.8,151.7,107.5,157.2,107.5,161.5z M51.2,179.6H20.5c-4.2,0-7.3,3.2-7.3,8.7v19.9H0V189
	c0-10.8,6.8-18,16.4-18h31c7.6-0.3,9.4-4.1,9.4-9.5c0-4.2-2.1-9.9-9.4-9.4H0v-7.9h51.2c13.4,0,18.7,7.8,18.7,17.3
	C69.9,172.2,64.6,179.6,51.2,179.6z M119.2,242.8c0,1.9-0.9,4.8-5.3,4.8h-4.2v6H107V238h6.9C118.3,238,119.2,240.9,119.2,242.8z
	 M109.7,240.2v5.2h4c1.2,0,2.7-0.6,2.7-2.6c0-2.1-1.2-2.6-2.7-2.6L109.7,240.2L109.7,240.2z M123.9,253.6h-2.5V238h2.5V253.6z
	 M130.4,247.1c1.8-0.3,3.4-0.1,3.4-1.6c0-1.3-1.3-1.5-2.3-1.5c-1.4,0-2.4,0.6-2.5,1.8h-2.5c0.2-2.9,2.6-3.8,5.1-3.8
	c2.2,0,4.5,0.9,4.5,3.3v5.8c0,0.6,0.1,0.9,0.6,0.9c0.2,0,0.4,0,0.6,0v1.7c-0.4,0.1-1.2,0.3-1.6,0.3c-1,0-1.7-0.3-1.9-1.4
	c-1,1-2.6,1.4-3.9,1.4c-2,0-3.9-1.1-3.9-3.3C126.1,247.8,128.3,247.3,130.4,247.1z M130.9,252c1.1,0,2.8-0.6,2.8-2.1V248
	c-0.8,0.5-2,0.5-3.1,0.7c-1.1,0.2-2,0.6-2,1.9C128.6,251.6,130,252,130.9,252z M156.5,251.8c2.4,0,3.3-1.2,3.3-2.4
	c0-1.2-0.7-1.7-1.3-1.9c-1.1-0.4-2.5-0.7-4.7-1.3c-2.7-0.7-3.5-2.3-3.5-4c0-3.1,2.9-4.6,5.7-4.6c3.3,0,6,1.7,6,5h-2.7
	c-0.1-2-1.5-2.8-3.4-2.8c-1.3,0-2.9,0.5-2.9,2c0,1.1,0.7,1.7,1.9,2c0.2,0.1,3.7,1,4.5,1.2c2.1,0.6,3,2.4,3,4c0,3.5-3.1,4.9-6.2,4.9
	c-3.6,0-6.5-1.7-6.5-5.6h2.7C152.6,250.8,154.3,251.8,156.5,251.8z M165.5,238.9h2.5v3.4h2.3v1.9H168v6c0,1,0.1,1.6,1.2,1.6
	c0.4,0,0.7,0,1.1-0.1v1.9c-0.5,0-1.1,0.1-1.6,0.1c-2.6,0-3.1-1-3.1-2.9v-6.7h-1.9v-1.9h1.9L165.5,238.9L165.5,238.9z M175.9,247.1
	c1.8-0.3,3.4-0.1,3.4-1.6c0-1.3-1.3-1.5-2.3-1.5c-1.4,0-2.4,0.6-2.5,1.8h-2.5c0.2-2.9,2.6-3.8,5.1-3.8c2.2,0,4.5,0.9,4.5,3.3v5.8
	c0,0.6,0.1,0.9,0.6,0.9c0.2,0,0.3,0,0.6,0v1.7c-0.4,0.1-1.2,0.3-1.6,0.3c-1,0-1.7-0.3-1.9-1.4c-1,1-2.6,1.4-3.9,1.4
	c-2,0-3.9-1.1-3.9-3.3C171.5,247.8,173.8,247.3,175.9,247.1z M176.3,252c1.1,0,2.8-0.6,2.8-2.1V248c-0.8,0.5-2,0.5-3.1,0.7
	c-1.1,0.2-2,0.6-2,1.9C174,251.6,175.4,252,176.3,252z M185.1,238.9h2.5v3.4h2.3v1.9h-2.3v6c0,1,0.1,1.6,1.2,1.6
	c0.4,0,0.7,0,1.1-0.1v1.9c-0.5,0-1.1,0.1-1.6,0.1c-2.6,0-3.1-1-3.1-2.9v-6.7h-1.9v-1.9h1.9V238.9z M194.3,240.4h-2.5V238h2.5V240.4z
	 M194.3,253.6h-2.5v-11.3h2.5V253.6z M202.3,242c3.6,0,5.7,2.5,5.7,6c0,3.5-2.1,6-5.7,6s-5.7-2.5-5.7-6
	C196.6,244.5,198.7,242,202.3,242z M202.3,252c2.2,0,3.2-2,3.2-4c0-1.9-1-4-3.2-4c-2.2,0-3.2,2-3.2,4
	C199.1,249.9,200.1,252,202.3,252z M212.6,244L212.6,244c0.8-1.2,2.1-2,3.6-2c2.5,0,4,1.3,4,3.9v7.8h-2.5v-7.1
	c0-1.8-0.7-2.5-2.2-2.5c-1.7,0-2.7,1.3-2.7,3v6.7h-2.5v-11.3h2.4L212.6,244L212.6,244z M246.4,240.4h-2.5V238h2.5V240.4z
	 M246.4,253.6h-2.5v-11.3h2.5V253.6z"/>
</svg>
