<?xml version="1.0" encoding="utf-8"?>
<!-- Generator: Adobe Illustrator 28.3.0, SVG Export Plug-In . SVG Version: 6.00 Build 0)  -->
<svg version="1.1"
	 id="svg4136" xmlns:cc="http://creativecommons.org/ns#" xmlns:dc="http://purl.org/dc/elements/1.1/" xmlns:svg="http://www.w3.org/2000/svg" xmlns:inkscape="http://www.inkscape.org/namespaces/inkscape" xmlns:sodipodi="http://sodipodi.sourceforge.net/DTD/sodipodi-0.dtd" xmlns:rdf="http://www.w3.org/1999/02/22-rdf-syntax-ns#" sodipodi:docname="Xbox Logo.svg"
	 xmlns="http://www.w3.org/2000/svg" xmlns:xlink="http://www.w3.org/1999/xlink" x="0px" y="0px" viewBox="0 0 400 400"
	 style="enable-background:new 0 0 400 400;" xml:space="preserve">
<style type="text/css">
	.st0{fill:#FFFFFF;}
</style>
<sodipodi:namedview  bordercolor="#666666" borderopacity="1" fit-margin-bottom="0" fit-margin-left="0" fit-margin-right="0" fit-margin-top="0" gridtolerance="10" guidetolerance="10" id="namedview4138" inkscape:current-layer="g4146" inkscape:cx="120.11921" inkscape:cy="190.18765" inkscape:pageopacity="0" inkscape:pageshadow="2" inkscape:window-height="1017" inkscape:window-maximized="1" inkscape:window-width="1920" inkscape:window-x="-8" inkscape:window-y="-8" inkscape:zoom="2.2378738" objecttolerance="10" pagecolor="#ffffff" showgrid="false">
	</sodipodi:namedview>
<g id="g4146" transform="translate(-1.5706619,12.357467)">
	<path id="path4148" inkscape:connector-curvature="0" class="st0" d="M181.6,386.8c-30.8-2.9-62-14-88.8-31.5
		c-22.4-14.6-27.5-20.7-27.5-32.7c0-24.1,26.5-66.4,71.9-114.6c25.8-27.4,61.7-59.4,65.6-58.6c7.5,1.7,67.9,60.6,90.5,88.3
		c35.7,43.8,52.2,79.7,43.8,95.7c-6.3,12.2-45.7,35.9-74.6,45.1C238.7,386.1,207.4,389.3,181.6,386.8L181.6,386.8z M35.1,297.6
		C16.4,269,7,240.8,2.4,200.1c-1.5-13.5-1-21.1,3.4-48.8c5.5-34.4,25.1-74.2,48.6-98.7c10-10.4,10.9-10.7,23.2-6.6
		c14.8,5,30.7,16,55.3,38.2l14.3,13l-7.8,9.6C103,151.5,64.6,214.8,50.2,254c-7.9,21.3-11,42.7-7.7,51.6
		C44.8,311.6,42.7,309.3,35.1,297.6z M362.4,302.4c1.8-9-0.5-25.5-5.9-42.2c-11.8-36.1-51.4-103.2-87.7-148.8l-11.4-14.4l12.4-11.4
		c16.1-14.8,27.4-23.7,39.4-31.2c9.5-5.9,23.2-11.2,29-11.2c3.6,0,16.3,13.2,26.6,27.6c15.9,22.3,27.6,49.4,33.5,77.5
		c3.8,18.2,4.2,57.1,0.6,75.3c-2.9,14.9-9,34.2-15,47.3c-4.5,9.8-15.6,28.9-20.5,35.1C361,309.3,361,309.3,362.4,302.4L362.4,302.4z
		 M184.9,36.5c-16.7-8.5-42.6-17.6-56.9-20.1c-5-0.9-13.5-1.3-19-1.1c-11.8,0.6-11.3,0,7.6-8.9c15.7-7.4,28.8-11.8,46.6-15.5
		c20-4.2,57.6-4.3,77.3-0.1c21.3,4.5,46.3,13.8,60.4,22.5l4.2,2.6l-9.6-0.5c-19.1-1-47,6.8-76.9,21.3c-9,4.4-16.9,7.9-17.4,7.8
		C200.7,44.3,193.4,40.7,184.9,36.5z"/>
</g>
</svg>
