<?xml version="1.0" encoding="utf-8"?>
<!-- Generator: Adobe Illustrator 28.3.0, SVG Export Plug-In . SVG Version: 6.00 Build 0)  -->
<svg version="1.1" id="Layer_1" xmlns="http://www.w3.org/2000/svg" xmlns:xlink="http://www.w3.org/1999/xlink" x="0px" y="0px"
	 viewBox="0 0 400 400" style="enable-background:new 0 0 400 400;" xml:space="preserve">
<style type="text/css">
	.st0{fill:#FFFFFF;}
</style>
<path class="st0" d="M255.9,224.5l-15.3-20.7l-15.3,20.7h-6.3l18.4-25l-16.8-22.8h6.3l13.7,18.6l13.7-18.6h6.3l-16.8,22.8l18.4,25
	H255.9z M136.9,224.5l-18.4-25l16.8-22.8H129l-13.7,18.6l-13.7-18.6h-6.3l16.8,22.8l-18.4,25h6.3l15.3-20.7l15.3,20.7H136.9z"/>
<path class="st0" d="M171.9,201.3c-0.9-0.8-2-1.5-3.1-2c3.5-1.9,5.8-5.6,5.7-9.6c0-3.1-1.1-13-15.5-13h-19.4v20.6h-6.5
	c-0.8,1.1-2.7,3.7-3.5,4.8h9.9v22.4l19.4,0c10.5,0,17-5.3,17-14C176,206.8,174.6,203.6,171.9,201.3 M144.9,181.7h14
	c3.8,0,10.2,0.9,10.2,7.6c0,5-3.7,8-10.2,8h-14V181.7L144.9,181.7z M158.9,219.5h-14v-17.4h14c5.3,0,11.7,1.5,11.7,8.3
	C170.6,218.4,163.3,219.5,158.9,219.5 M201.2,175.6c-13.4,0-22.8,10.3-22.8,25c0,14.7,9.4,25,22.8,25c13.4,0,22.8-10.3,22.8-25
	C224,185.9,214.7,175.6,201.2,175.6 M201.2,220.5c-10.2,0-17.4-8.2-17.4-19.9s7.2-19.9,17.4-19.9c10.2,0,17.3,8.2,17.3,19.9
	S211.5,220.5,201.2,220.5 M11.9,171.6L11.9,171.6L11.9,171.6C4.3,179.1,0,189.4,0,200c0,8.7,2.9,17.2,8.1,24.1
	c0.1,0.1,0.1,0.1,0.2,0.1c0.1,0,0.1-0.1,0-0.2c-3-9.4,12.5-32.2,20.5-41.7c0,0,0.1-0.1,0.1-0.1c0-0.1,0-0.1-0.1-0.1
	C15.4,168.6,11.8,171.7,11.9,171.6 M67.8,171.6L67.8,171.6L67.8,171.6c7.6,7.5,11.9,17.7,11.9,28.4c0,8.7-2.9,17.2-8.1,24.1
	c-0.1,0.1-0.1,0.1-0.2,0.1c-0.1,0-0.1-0.1,0-0.2c3-9.4-12.5-32.2-20.5-41.7c0,0-0.1-0.1-0.1-0.1c0-0.1,0-0.1,0.1-0.1
	C64.3,168.6,67.9,171.7,67.8,171.6 M39.8,160.2c8,0,14.7,2.2,20.8,5.8c0.1,0,0.1,0.1,0.1,0.2c0,0.1-0.1,0.1-0.2,0.1
	c-7.7-1.7-19.4,5-20.5,5.7c0,0-0.1,0-0.1,0c0,0-0.1,0-0.1,0c-2.9-1.7-13.8-7.4-20.6-5.6c-0.1,0-0.2,0-0.2-0.1c0-0.1,0-0.2,0.1-0.2
	C25.1,162.4,31.8,160.2,39.8,160.2 M39.8,192.1c0,0,0.1,0,0.1,0.1c11.9,9.1,32.3,31.5,26.1,37.8l0,0l0,0h0
	c-7.3,6.4-16.6,9.9-26.2,9.9c-9.7,0-19-3.5-26.2-9.9l0,0l0,0c-6.2-6.3,14.2-28.7,26.1-37.8C39.7,192.2,39.8,192.1,39.8,192.1
	 M354.9,176.7V216l-28.9-39.3l-4.7,0v47.8h5.3v-38.4l28.3,38.4l5.3,0v-47.8H354.9z M293.7,175.6c-13.4,0-22.8,10.3-22.8,25
	c0,14.7,9.4,25,22.8,25c13.4,0,22.8-10.3,22.8-25C316.5,185.9,307.1,175.6,293.7,175.6 M293.7,220.5c-10.2,0-17.4-8.2-17.4-19.9
	c0-11.7,7.2-19.9,17.4-19.9c10.2,0,17.3,8.2,17.3,19.9C311,212.3,303.9,220.5,293.7,220.5 M371.6,219.8v-17.7h26.3v-4.7h-26.3v-16.1
	h28.1v-4.7h-33.4v47.8H400v-4.7H371.6z"/>
</svg>
