<?xml version="1.0" encoding="utf-8"?>
<!-- Generator: Adobe Illustrator 28.3.0, SVG Export Plug-In . SVG Version: 6.00 Build 0)  -->
<svg version="1.1" id="svg2" xmlns:svg="http://www.w3.org/2000/svg"
	 xmlns="http://www.w3.org/2000/svg" xmlns:xlink="http://www.w3.org/1999/xlink" x="0px" y="0px" viewBox="0 0 400 400"
	 style="enable-background:new 0 0 400 400;" xml:space="preserve">
<style type="text/css">
	.st0{fill:#FFFFFF;}
</style>
<g id="layer1" transform="translate(-32.711327,-529.05475)">
	<path id="text2400" class="st0" d="M293.7,731v-6.6h7.5c5.5,0,9.4-1.1,11.7-3.4c2.4-2.2,3.6-5,3.6-8.2c0-3.5-1.3-6.3-4-8.4
		c-2.6-2.1-5.9-3.1-9.9-3.1c-7.4,0-12.5,3.6-15.3,10.7h-7.5c4.3-11.5,12.1-17.2,23.5-17.2c6.4,0,11.6,1.7,15.5,5.1
		c3.9,3.4,5.9,7.5,5.9,12.3c0,3.7-1.2,7-3.6,9.7c-2.4,2.8-5.4,4.5-9.1,5.2c4.2,0.6,7.8,2.3,10.8,5.2c3,2.9,4.5,6.6,4.5,11.2
		c0,5.5-2.2,10.1-6.7,13.8c-4.5,3.7-10.6,5.6-18.4,5.6c-6.1,0-11.4-1.5-15.8-4.4c-4.4-2.9-8.4-11.3-9.1-19.2h7.7
		c1.3,10.3,8,16.9,17.1,16.9c5.9,0,10.1-1.3,12.7-3.8c2.6-2.5,3.9-5.5,3.9-9c0-3.8-1.5-6.8-4.6-9.2c-3.1-2.3-7.4-3.5-13-3.5H293.7z
		 M376.9,711.7h-7.5c-2.5-6.6-7.2-10-13.9-10c-12.3,0-18.6,8.3-18.9,28.2c1.9-4.1,4.6-7.2,8.2-9.4c3.6-2.2,7.4-3.3,11.5-3.3
		c6.1,0,11.2,2.1,15.3,6.4c4.1,4.2,6.2,11,6.2,16.9c0,6.1-2.2,11.4-6.5,15.9c-4.4,4.5-10,6.7-16.8,6.7c-7.8,0-14-2.9-18.6-8.8
		c-4.6-5.8-6.9-13.8-6.9-23.9c0-9.8,2.2-18.2,6.5-25.2c4.3-7,11.1-10.4,20.2-10.4C366.2,694.9,373.3,700.5,376.9,711.7L376.9,711.7z
		 M354.3,756.6c4.6,0,8.5-1.5,11.4-4.6c3-3.1,4.4-6.8,4.4-11c0-4.2-1.4-9.5-4.3-12.5c-2.9-3-6.5-4.5-10.8-4.5
		c-4.4,0-8.3,1.6-11.6,4.8c-3.3,3.2-4.9,8.6-4.9,12.8c0,3.9,1.5,7.4,4.4,10.5C345.9,755.1,349.7,756.6,354.3,756.6L354.3,756.6z
		 M407.4,763.2c-7.9,0-14.1-3.3-18.6-9.8c-4.5-6.6-6.8-14.7-6.8-24.4c0-9.5,2.1-17.6,6.4-24.2c4.3-6.6,10.5-9.9,18.7-9.9
		c8.5,0,14.9,3.4,19.2,10.3c4.2,6.9,6.4,14.9,6.4,24.1c0,9-2.2,16.9-6.5,23.7C421.8,759.8,415.5,763.2,407.4,763.2L407.4,763.2z
		 M407.5,756.7c5.9,0,10.1-2.5,12.8-7.5c2.7-5,4-11.3,4-18.9c0-8.3-1.4-15.2-4.1-20.7c-2.7-5.5-7.1-8.3-13.1-8.3
		c-5.8,0-10.1,2.5-12.7,7.6c-2.7,5-4,11.7-4,19.8c0,8.5,1.4,15.3,4.2,20.4C397.4,754.2,401.7,756.7,407.5,756.7L407.5,756.7z"/>
	<path id="text2383" class="st0" d="M88.9,695.3L66,728.2l22.8,33.7H78.6l-18.1-27.4l-18.5,27.4h-9.6l23.1-33.3L33,695.3h10.1
		l17.8,27l18.2-27H88.9z M146.6,741.4c0,3.3-0.6,6.2-1.9,8.8c-1.2,2.5-2.9,4.6-5,6.3c-2.5,2-5.2,3.4-8.2,4.2c-3,0.8-8.4,1.3-13,1.3
		H95v-32.3H81.6l4.4-7.5H95v-26.8h19.6c4.8,0,10.1,0.2,12.5,0.5c2.4,0.4,5.5,1.1,7.7,2.2c2.4,1.3,4.2,2.9,5.3,4.9
		c1.1,2,1.6,4.4,1.6,7.2c0,3.2-0.8,5.8-2.4,8.1c-1.6,2.2-3.7,4-6.4,5.3v0.4c4.5,0.9,7.2,2.9,9.8,5.9
		C145.3,733,146.6,736.8,146.6,741.4L146.6,741.4z M132.6,711.4c0-1.6-0.3-3-0.8-4.1c-0.5-1.1-1.4-2-2.6-2.7
		c-1.4-0.8-5.6-1.3-7.6-1.5c-2-0.2-4.4-0.3-7.4-0.3h-10.5v19.2h11.4c2.8,0,5-0.1,6.6-0.4c1.6-0.3,4.8-0.9,6.2-1.8
		c1.4-0.9,3.2-2,3.8-3.5C132.3,715,132.6,713.3,132.6,711.4L132.6,711.4z M137.4,741.8c0-2.7-0.4-4.8-1.2-6.4
		c-0.8-1.6-2.3-2.9-4.4-4c-1.4-0.7-3.2-1.2-5.2-1.5c-2-0.2-6.2-0.3-9.1-0.3h-13.8v24.8h11.7c3.9,0,8.7-0.2,11.1-0.6
		c2.5-0.4,4.5-1.1,6.1-2.2c1.7-1.2,2.9-2.5,3.6-4C137.1,746,137.4,744.1,137.4,741.8L137.4,741.8z M154.5,727.9
		c0,7.2,2.4,13.5,7.1,18.9c4.6,5.4,10.5,8.1,17.7,8.1c5.2,0,10.2-1.8,15.1-5.4c6.6-4.9,9.8-11.6,9.8-20.3c0-6.9-2.2-12.8-6.5-17.7
		c-4.7-5.3-11-8-18.6-8c-6.6,0-12.4,2.4-17.2,7.2C156.9,715.5,154.5,721.3,154.5,727.9L154.5,727.9z M145.1,727.9
		c0-9,3.5-16.8,10.5-23.3c6.7-6.2,14.2-9.3,22.6-9.3c8.6,0,16.2,2.6,22.9,7.7c8.2,6.2,12.2,14.8,12.2,25.8c0,8.4-3.1,16.1-9.3,23.1
		c-6.7,7.4-14.8,11-24.2,11c-9.3,0-17.2-3-23.9-9.1C148.7,747.2,145.1,738.5,145.1,727.9L145.1,727.9z M261.4,695.3l-22.9,32.9
		l22.8,33.7h-10.2l-18.1-27.4l-18.5,27.4H205l23.1-33.3l-22.6-33.3h10.1l17.8,27l18.2-27H261.4z"/>
</g>
</svg>
