<?xml version="1.0" encoding="utf-8"?>
<!-- Generator: Adobe Illustrator 28.3.0, SVG Export Plug-In . SVG Version: 6.00 Build 0)  -->
<svg version="1.1"
	 id="Ebene_1" xmlns:svg="http://www.w3.org/2000/svg" xmlns:dc="http://purl.org/dc/elements/1.1/" xmlns:inkscape="http://www.inkscape.org/namespaces/inkscape" xmlns:sodipodi="http://sodipodi.sourceforge.net/DTD/sodipodi-0.dtd" xmlns:rdf="http://www.w3.org/1999/02/22-rdf-syntax-ns#" xmlns:cc="http://creativecommons.org/ns#"
	 xmlns="http://www.w3.org/2000/svg" xmlns:xlink="http://www.w3.org/1999/xlink" x="0px" y="0px" viewBox="0 0 400 400"
	 style="enable-background:new 0 0 400 400;" xml:space="preserve">
<style type="text/css">
	.st0{fill:#FFFFFF;}
</style>
<sodipodi:namedview  bordercolor="#666666" borderopacity="1" fit-margin-bottom="0.5" fit-margin-left="0.5" fit-margin-right="0.5" fit-margin-top="0.5" gridtolerance="10" guidetolerance="10" id="namedview172" inkscape:current-layer="layer1-7" inkscape:cx="139.29571" inkscape:cy="14.103165" inkscape:pageopacity="0" inkscape:pageshadow="2" inkscape:window-height="1028" inkscape:window-maximized="1" inkscape:window-width="1920" inkscape:window-x="-8" inkscape:window-y="-8" inkscape:zoom="5.7673396" objecttolerance="10" pagecolor="#ffffff" showgrid="false">
	</sodipodi:namedview>
<g id="g3565" transform="translate(-1.9999987,-262.77216)">
	<g id="layer1-7" transform="matrix(0.52487675,0,0,0.52227257,113.61798,428.31105)">
		<g id="g3219" transform="matrix(0.5080285,0,0,0.5080285,-104.15184,-114.03014)">
			<path id="path6965" inkscape:connector-curvature="0" class="st0" d="M1286.5,567.5l-163.9-223.1l149.6-202.8h-56.1L1094.4,307
				L972.6,141.6h-55.7l149.2,202.8L902.6,567.5h56.1l135.7-184.7l136,184.7H1286.5"/>
			<path id="path6967" inkscape:connector-curvature="0" class="st0" d="M170.3,567.5L6.8,344.3L156,141.6h-55.7L-21.4,307
				l-121.7-165.4h-56.1l149.6,202.8l-163.9,223.1h56.1l136-184.7l135.7,184.7H170.3"/>
			<path id="path6969" inkscape:connector-curvature="0" class="st0" d="M366.5,523c0,0-105.6,0-125,0V368c19.4,0,125,0,125,0
				c47.7,0,104.1,13,104.1,74.1C470.6,512.4,405.4,523,366.5,523z M241.5,186c19.4,0,125,0,125,0c33.7,0,90.6,8.5,90.6,67.7
				c0,44.8-33,71.4-90.6,71.4c0,0-105.6,0-125,0V186z M481.6,360.5c-8.8-7.7-18.3-13.5-27.9-17.8c30.8-16.8,51-48.4,51-85.3
				c0-27.2-9.9-115.9-138.2-115.9H193.8v183.7c0,0-55.7,0-57.6,0c-7.7,9.7-24.6,33.1-31.2,42.6c6.2,0,88.7,0,88.7,0v199.5h172.7
				c93.9,0,152.2-47.6,152.2-124.3C518.7,409.6,505.8,381.1,481.6,360.5"/>
			<path id="path6971" inkscape:connector-curvature="0" class="st0" d="M743.5,531.8c-91.3,0-155.1-72.9-155.1-177.5
				c0-104.5,63.8-177.4,155.1-177.4c90.9,0,154.4,72.9,154.4,177.4C897.8,458.9,834.4,531.8,743.5,531.8z M743.5,131.8
				c-119.9,0-203.5,91.5-203.5,222.5c0,131.1,83.6,222.6,203.5,222.6c119.2,0,202.8-91.5,202.8-222.6
				C946.2,223.3,862.6,131.8,743.5,131.8"/>
		</g>
	</g>
</g>
</svg>
