<?xml version="1.0" encoding="utf-8"?>
<!-- Generator: Adobe Illustrator 28.3.0, SVG Export Plug-In . SVG Version: 6.00 Build 0)  -->
<svg version="1.1" id="Layer_1" xmlns="http://www.w3.org/2000/svg" xmlns:xlink="http://www.w3.org/1999/xlink" x="0px" y="0px"
	 viewBox="0 0 450 450" style="enable-background:new 0 0 450 450;" xml:space="preserve">
<style type="text/css">
	.st0{fill:#FFFFFF;}
</style>
<path class="st0" d="M97.2,165.5c4.3,0,7.6,1.6,10,4.8c2.4,3.1,3.5,7.5,3.5,13.2c0,5.9-1.4,10.7-4,13.9c-2.7,3.3-6.6,5-11.5,5h-0.1
	V194h0.1c3.1,0,5.3-1,6.7-2.7c1.4-1.8,2-4.5,2-8.1c0-2.8-0.6-5.1-1.6-6.6c-1-1.5-2.6-2.3-4.7-2.3c-1.7,0-3,0.7-3.9,1.9
	c-0.9,1.3-1.7,3.6-2.4,7l-0.8,3.8c-0.9,4.7-2.5,8.3-4.7,10.7c-2.3,2.4-5.1,3.5-8.8,3.5c-3.8,0-6.8-1.5-9.1-4.3
	c-2.3-2.8-3.4-6.9-3.4-12c0-5.8,1.3-10.2,3.8-13.2s6-4.5,10.5-4.8h0.1v8.2H79c-2.5,0.1-4.3,1-5.5,2.5c-1.1,1.5-1.8,3.9-1.8,7.2
	c0,2.5,0.5,4.4,1.4,5.8c0.9,1.4,2.3,2,4,2c1.7,0,3.1-0.6,4-1.8c0.9-1.3,1.7-3.5,2.4-6.7l0.8-3.9c1-5.1,2.6-8.9,4.7-11.1
	C90.7,166.7,93.6,165.5,97.2,165.5z M88.7,405.9c-2,2.3-3.6,6-4.7,11.1l-0.8,3.9c-0.7,3.2-1.5,5.5-2.4,6.7c-0.9,1.3-2.3,1.8-4,1.8
	c-1.7,0-3.1-0.7-4-2c-0.9-1.4-1.4-3.3-1.4-5.8c0-3.3,0.6-5.7,1.8-7.2c1.1-1.5,3.1-2.3,5.5-2.5h0.1v-8.2h-0.1
	c-4.4,0.1-8,1.8-10.5,4.8c-2.5,3-3.8,7.4-3.8,13.2c0,5.1,1.1,9.1,3.4,12c2.3,2.8,5.3,4.3,9.1,4.3c3.5,0,6.5-1.3,8.8-3.5
	c2.3-2.4,3.8-5.9,4.7-10.7l0.8-3.8c0.7-3.4,1.5-5.8,2.4-7c0.9-1.3,2.2-1.9,3.9-1.9c2,0,3.6,0.8,4.7,2.3c1,1.5,1.6,3.8,1.6,6.6
	c0,3.5-0.7,6.3-2,8.1s-3.6,2.7-6.7,2.7h-0.1v8.3H95c5,0,8.9-1.7,11.5-5c2.7-3.3,4-8,4-13.9c0-5.6-1.3-10-3.5-13.2
	c-2.4-3.2-5.8-4.8-10-4.8C93.6,402.5,90.7,403.6,88.7,405.9z M109.7,298.5v8.8l0,0c-1.3,0.8-3.1,1.1-5.2,1.1l-4.8,0.2
	c-2.6,0.1-4.5,0.7-5.6,1.8c-1,1-1.6,2.8-1.6,5.2v10.8h17.2v8.4H65.6v-20c0-1,0-1.9,0.1-2.8c0,0.3,0,0.6,0,0.9c0.2-3.4,1-6.3,2.5-8.4
	c-0.1,0.1-0.2,0.3-0.3,0.5c0.3-0.6,0.7-1,1-1.5c2.3-2.7,5.3-4.1,9.1-4.1c5.2,0,8.8,2.4,10.5,7.2c0.7-2.2,1.8-3.8,3.3-4.7
	c1.5-1,3.5-1.5,6.1-1.6l6.6-0.3C106.6,299.8,108.3,299.4,109.7,298.5L109.7,298.5z M79,308c-2,0-3.6,0.7-4.8,1.9
	c-1.1,1.4-1.7,3.2-1.7,5.7v10.8h13.3v-11c0-2.3-0.6-4.1-1.7-5.5C83,308.6,81.3,308,79,308z M65.6,280.7h44.1v-8.4H65.6V280.7z
	 M73.2,219.2h-7.6v32.5h44.1v-32.5h-7.6v24.1H90.8v-21.8h-7.3v21.8H73.2V219.2L73.2,219.2z M73.2,352.9h-7.6v32.6h44.1V353h-7.6
	v24.1H90.8v-21.8h-7.3v21.8H73.2V352.9L73.2,352.9z M128.9,439.2h58.5l44.4-61.2l-29.2-40.2L128.9,439.2z M385.4,166.8h-58.5
	l-36.4,50l29.2,40.2L385.4,166.8z M195.5,166.8H137l197.9,272.4h58.5L195.5,166.8z"/>
<path class="st0" d="M113.9,131.7H93.3l-35.4-49l-35.7,49H1.6l45.7-63l-41.9-58H26l31.9,44l31.9-44h20.6l-42.2,58L113.9,131.7z
	 M220.9,97.3c0,10.5-3.5,19.1-10.5,25.1c-7,6-17.1,9.3-30.1,9.3h-56.5v-54H96.6l11.3-15.6h15.8V10.6h54.3c12.3,0,21.6,3,28.1,8.8
	s9.8,13.6,9.8,22.9c0,11.6-5.3,20.6-15.8,26.4c6.8,2.5,11.8,6.5,15.3,11.3C219.1,84.7,220.9,90.8,220.9,97.3z M142,62.4h34.7
	c7,0,12.3-1.5,15.8-4.8c3.5-3,5.3-7.8,5.3-14.1c0-5.3-1.8-9.5-5.5-12.6c-3.5-3-8.8-4.5-15.6-4.5H142V62.4z M202.3,96.8
	c0-6.3-2-11.3-5.8-14.3c-3.8-3.3-9.5-4.8-17.1-4.8H142v37.9h37.2c7.3,0,13.1-1.8,17.1-4.8C200.3,107.6,202.3,102.8,202.3,96.8
	L202.3,96.8z M345.5,71.2c0,9.3-1.3,18.1-4,25.6c-2.8,7.5-6.8,14.3-12.1,20.1c-5.5,5.8-11.8,10.3-18.8,13.1c-7,3-15.1,4.3-24.1,4.3
	c-8.8,0-17.1-1.5-24.1-4.3c-7-3-13.3-7.3-18.8-13.1c-5.5-5.8-9.5-12.6-12.3-20.1c-2.8-7.5-4-16.3-4-25.6c0-9.3,1.3-18.1,4-25.6
	C234,38,238,31,243.5,25.2c5.3-5.8,11.6-10,18.8-13.1c7-2.8,15.3-4.3,24.1-4.3c8.8,0,16.8,1.5,24.1,4.3c7,2.8,13.6,7.3,18.8,13.1
	s9.5,12.8,12.1,20.3C344,53.1,345.5,61.6,345.5,71.2z M246.3,71.2c0,14.3,3.8,25.6,11.1,33.9c7.3,8.3,16.8,12.6,29.1,12.6
	c12.1,0,21.9-4.3,29.1-12.6s10.8-19.6,10.8-33.9s-3.5-25.9-10.8-34.2c-7.3-8.3-17.1-12.6-29.1-12.6c-12.1,0-21.9,4.3-29.1,12.6
	C250,45.6,246.3,56.9,246.3,71.2z M403.8,68.7l42.2-58h-20.6l-31.9,44l-31.9-44H341l42.2,58l-45.7,63H358l35.4-49l35.7,49h20.6
	L403.8,68.7z"/>
</svg>
