<?xml version="1.0" encoding="utf-8"?>
<!-- Generator: Adobe Illustrator 28.3.0, SVG Export Plug-In . SVG Version: 6.00 Build 0)  -->
<svg version="1.1" id="OBJECTS_1_" xmlns="http://www.w3.org/2000/svg" xmlns:xlink="http://www.w3.org/1999/xlink" x="0px" y="0px"
	 viewBox="0 0 239.1 149.5" style="enable-background:new 0 0 239.1 149.5;" xml:space="preserve">
<style type="text/css">
	.st0{fill:#000201;}
	.st1{fill:url(#SVGID_1_);}
	.st2{fill:url(#SVGID_00000022550900228828920910000002294199538634920863_);}
	.st3{opacity:0.23;fill:#000201;}
	.st4{fill:#7480FF;}
</style>
<g>
	<path class="st0" d="M207.6,149.5c-6.4,0-12.4-2.5-16.9-7.1l-22.8-23c-1.8-1.9-4.4-2.9-7-2.9H78.3c-2.6,0-5.2,1.1-7,2.9l-22.8,23
		c-4.5,4.6-10.5,7.1-16.9,7.1c-7.9,0-15.3-3.9-19.7-10.4l-2.4-3.5c-9.6-14.1-12.1-32.1-6.6-48.2L23,28.3c2.1-6,6.5-11.1,12.3-13.8
		L60.6,2.3C63.8,0.8,67.4,0,70.9,0c5.8,0,11.3,2.1,15.7,5.9c1.8,1.6,4.1,2.4,6.5,2.4H146c2.4,0,4.7-0.9,6.5-2.4
		c4.3-3.8,9.9-5.9,15.7-5.9c3.5,0,7.1,0.8,10.3,2.3l25.4,12.1c5.8,2.7,10.2,7.8,12.3,13.8l20.1,59.1c5.5,16.1,3,34.2-6.6,48.2
		l-2.4,3.5C222.9,145.6,215.5,149.5,207.6,149.5L207.6,149.5z"/>
	<linearGradient id="SVGID_1_" gradientUnits="userSpaceOnUse" x1="107.305" y1="-20.5234" x2="129.9768" y2="211.2767">
		<stop  offset="0" style="stop-color:#7480FF"/>
		<stop  offset="1" style="stop-color:#05181E"/>
	</linearGradient>
	<path class="st1" d="M200.8,20.7L175.5,8.6c-6.1-2.9-13.3-1.9-18.4,2.5l0,0c-3.1,2.7-7,4.2-11.1,4.2h-26.5H93.1
		c-4.1,0-8-1.5-11.1-4.2v0c-5.1-4.4-12.3-5.4-18.4-2.5L38.3,20.7c-4.1,2-7.2,5.5-8.7,9.8L9.5,89.6c-4.8,14.1-2.7,29.7,5.7,42
		l2.4,3.5c6,8.7,18.4,9.9,25.9,2.4l22.8-23c3.2-3.2,7.5-5,12-5h41.3h41.3c4.5,0,8.8,1.8,12,5l22.8,23c7.5,7.5,19.9,6.4,25.9-2.4
		l2.4-3.5c8.4-12.3,10.6-27.9,5.7-42l-20.1-59.1C208.1,26.2,204.9,22.7,200.8,20.7z"/>
	
		<linearGradient id="SVGID_00000071549339117479370980000015378522335791067546_" gradientUnits="userSpaceOnUse" x1="119.5727" y1="-63.9229" x2="119.5727" y2="133.3175">
		<stop  offset="0" style="stop-color:#7480FF"/>
		<stop  offset="8.828729e-02" style="stop-color:#606DD7"/>
		<stop  offset="0.2099" style="stop-color:#4857A6"/>
		<stop  offset="0.335" style="stop-color:#34447C"/>
		<stop  offset="0.4613" style="stop-color:#23345A"/>
		<stop  offset="0.5895" style="stop-color:#162840"/>
		<stop  offset="0.7202" style="stop-color:#0C1F2D"/>
		<stop  offset="0.855" style="stop-color:#071A22"/>
		<stop  offset="1" style="stop-color:#05181E"/>
	</linearGradient>
	<path style="fill:url(#SVGID_00000071549339117479370980000015378522335791067546_);" d="M207.6,137.8c-3.3,0-6.3-1.3-8.6-3.6
		l-22.8-23c-4-4.1-9.6-6.4-15.3-6.4H78.3c-5.7,0-11.3,2.3-15.3,6.4l-22.8,23c-2.3,2.3-5.4,3.6-8.6,3.6c-4,0-7.8-2-10.1-5.3l-2.4-3.5
		c-7.6-11-9.5-25.2-5.2-37.9L34,32c1-3.1,3.3-5.7,6.3-7.1l25.4-12.1c1.7-0.8,3.4-1.2,5.2-1.2c2.9,0,5.8,1.1,8,3
		c3.9,3.4,9,5.3,14.2,5.3H146c5.2,0,10.2-1.9,14.2-5.3c2.2-1.9,5.1-3,8-3c1.8,0,3.6,0.4,5.2,1.2L198.8,25c2.9,1.4,5.2,4,6.3,7.1
		l20.1,59.1c4.3,12.7,2.4,26.8-5.2,37.9l-2.4,3.5C215.4,135.8,211.6,137.8,207.6,137.8C207.6,137.8,207.6,137.8,207.6,137.8z"/>
	<path class="st3" d="M79.6,19c0,0,11.4,18.5,17.5,18.9c6.1,0.4,22.5,0,22.5,0V20.7L79.6,19z"/>
	<path class="st3" d="M159.6,19c0,0-11.4,18.5-17.5,18.9c-6.1,0.4-22.5,0-22.5,0V20.7L159.6,19z"/>
	<path class="st3" d="M119.6,104.8H78.3c-5.7,0-11.3,2.3-15.3,6.4l-22.8,23c-2.3,2.3-5.4,3.6-8.6,3.6c-4,0-7.8-2-10.1-5.3l-2.4-3.5
		c-7.6-11-9.5-25.2-5.2-37.9l18.6-54.6l0,0c0,0-4.7,49.4-3.1,58.9c2,11.7,10.4,23.7,16.8,18.9c8-6.1,26.9-15.8,29.9-23L76.5,74h43
		V104.8z"/>
	<path class="st3" d="M119.6,104.8h41.3c5.7,0,11.3,2.3,15.3,6.4l22.8,23c2.3,2.3,5.4,3.6,8.6,3.6c4,0,7.8-2,10.1-5.3l2.4-3.5
		c7.6-11,9.5-25.2,5.2-37.9l-18.6-54.6l0,0c0,0,4.7,49.4,3.1,58.9c-2,11.7-10.4,23.7-16.8,18.9c-8-6.1-26.9-15.8-29.9-23L162.6,74
		h-43V104.8z"/>
	<g>
		<g>
			<g>
				
					<ellipse transform="matrix(0.7071 -0.7071 0.7071 0.7071 30.5526 136.8572)" class="st4" cx="180.5" cy="31.5" rx="5.8" ry="5.8"/>
				<circle class="st4" cx="180.5" cy="63.1" r="5.8"/>
			</g>
			<g>
				
					<ellipse transform="matrix(0.7071 -0.7071 0.7071 0.7071 24.0172 152.635)" class="st4" cx="196.3" cy="47.3" rx="5.8" ry="5.8"/>
				<ellipse transform="matrix(0.229 -0.9734 0.9734 0.229 80.9138 196.811)" class="st4" cx="164.7" cy="47.3" rx="5.8" ry="5.8"/>
			</g>
		</g>
	</g>
	<ellipse transform="matrix(0.1673 -0.9859 0.9859 0.1673 4.3272 93.7916)" class="st4" cx="57.7" cy="44.3" rx="12.8" ry="12.8"/>
	<g>
		<circle class="st4" cx="149.7" cy="82.7" r="12.8"/>
		
			<ellipse transform="matrix(0.6712 -0.7413 0.7413 0.6712 -12.0384 138.1712)" class="st4" cx="149.7" cy="82.7" rx="8.7" ry="8.7"/>
	</g>
	<g>
		<path class="st4" d="M86.3,95.4c-2.9,0-5.3-2.4-5.3-5.3v-5.6h-5.6c-2.9,0-5.3-2.4-5.3-5.3v-3.9c0-2.9,2.4-5.3,5.3-5.3H81v-5.6
			c0-2.9,2.4-5.3,5.3-5.3h3.9c2.9,0,5.3,2.4,5.3,5.3V70h5.6c2.9,0,5.3,2.4,5.3,5.3v3.9c0,2.9-2.4,5.3-5.3,5.3h-5.6v5.6
			c0,2.9-2.4,5.3-5.3,5.3H86.3z"/>
		<path class="st4" d="M101.1,73.2h-6.6c-1.2,0-2.2-1-2.2-2.2v-6.6c0-1.2-1-2.2-2.2-2.2h-3.9c-1.2,0-2.2,1-2.2,2.2V71
			c0,1.2-1,2.2-2.2,2.2h-6.6c-1.2,0-2.2,1-2.2,2.2v3.9c0,1.2,1,2.2,2.2,2.2h6.6c1.2,0,2.2,1,2.2,2.2v6.6c0,1.2,1,2.2,2.2,2.2h3.9
			c1.2,0,2.2-1,2.2-2.2v-6.6c0-1.2,1-2.2,2.2-2.2h6.6c1.2,0,2.2-1,2.2-2.2v-3.9C103.3,74.1,102.3,73.2,101.1,73.2z"/>
	</g>
	<path class="st4" d="M93.1,15.3c-4.1,0-8-1.5-11.1-4.2v0c-5.1-4.4-12.3-5.4-18.4-2.5L38.3,20.7c-0.4,0.2-0.8,0.4-1.2,0.6
		c-0.2,0.1-0.4,0.3-0.6,0.4c-0.1,0.1-0.2,0.1-0.3,0.2c1.4-0.6,22.9-8.7,32.5-10.1c5.6-0.8,9.4,7.1,15.1,10.8
		c3.7,2.4,2.9,2.7,35.8,2.7v-10H93.1z"/>
	<path class="st4" d="M146,15.3c4.1,0,8-1.5,11.1-4.2v0c5.1-4.4,12.3-5.4,18.4-2.5l25.4,12.1c0.4,0.2,0.8,0.4,1.2,0.6
		c0.2,0.1,0.4,0.3,0.6,0.4c0.1,0.1,0.2,0.1,0.3,0.2c-1.4-0.6-22.9-8.7-32.5-10.1c-5.6-0.8-9.4,7.1-15.1,10.8
		c-3.7,2.4-2.9,2.7-35.8,2.7v-10H146z"/>
	<path class="st4" d="M32.5,36.5c0,0-12.4,51.2-11.1,61.2c1.3,10.1,8.6,24,12.6,27.7c4,3.7,31.7-16.6,31.7-16.6s-19.2,21.9-27,26.6
		s-14.7,7-23.6-13.6c-6.5-15.2-4-23.3,5.3-50.3C29.8,44.6,32.5,36.5,32.5,36.5z"/>
	<path class="st4" d="M206.6,36.5c0,0,12.4,51.2,11.1,61.2c-1.3,10.1-8.6,24-12.6,27.7c-4,3.7-31.7-16.6-31.7-16.6
		s19.2,21.9,27,26.6c7.8,4.7,14.7,7,23.6-13.6c6.5-15.2,4-23.3-5.3-50.3C209.4,44.6,206.6,36.5,206.6,36.5z"/>
	<g>
		<path class="st4" d="M95.2,44.3c0,1.2-1,2.3-2.3,2.3s-2.3-1-2.3-2.3c0-1.2,1-2.3,2.3-2.3S95.2,43,95.2,44.3z"/>
		<circle class="st4" cx="146.2" cy="44.3" r="2.3"/>
	</g>
	<circle class="st4" cx="57.7" cy="44.3" r="8.7"/>
</g>
</svg>
